<svg width="42" height="33" viewBox="0 0 42 33" fill="none" xmlns="http://www.w3.org/2000/svg">
<path d="M0.565226 12.4086C0.672126 11.9371 1.02939 11.5597 1.49535 11.426L36.4648 1.44862C36.8186 1.34788 37.1846 1.55157 37.2821 1.9035C37.3796 2.25543 37.1718 2.62245 36.818 2.72319L3.41421 12.2578L27.5011 17.2527C27.8596 17.3272 28.0868 17.678 28.0086 18.0363C27.9305 18.3946 27.5765 18.6247 27.218 18.5503L2.76605 13.4787L11.0811 20.6859L21.6583 30.7937C21.8059 30.9355 22.0117 31.0004 22.2156 30.9694C22.4108 30.9393 22.5813 30.8195 22.6761 30.646L27.7058 22.2851L30.052 18.1857C30.2344 17.8665 30.6402 17.7526 30.9585 17.9313C30.9977 17.9582 31.0337 17.9894 31.0658 18.0244L31.0785 18.0146L37.8567 23.2413L33.7426 12.8362L13.6172 13.2933C13.371 13.3133 13.1353 13.1958 13.0051 12.9879C12.8749 12.78 12.8717 12.5162 12.9968 12.3028C13.1219 12.0893 13.3547 11.9615 13.6012 11.9708L33.8268 11.5071L40.2379 0.605998C40.4257 0.29184 40.8309 0.185177 41.1453 0.367202C41.4597 0.549226 41.5654 0.951666 41.3819 1.26835L34.9354 12.2261L39.0969 22.7557C39.3108 23.3004 39.1352 23.924 38.6666 24.2837L38.6545 24.2931C38.3962 24.4855 38.0769 24.577 37.7576 24.5501C37.7307 24.5533 37.7036 24.5547 37.6766 24.5543L28.5877 23.3344L23.8251 31.3028C23.5286 31.8272 23.0059 32.1868 22.4107 32.276C21.8004 32.3719 21.1829 32.1801 20.7393 31.7568L10.1834 21.6669L0.993781 13.7033C0.622059 13.3857 0.457406 12.8883 0.565226 12.4086ZM35.2222 22.8893L30.824 19.5009L29.6403 21.5738L29.3272 22.0977L35.2222 22.8893Z" fill="#F5E8D0"/>
</svg>
