<svg width="77" height="77" viewBox="0 0 77 77" fill="none" xmlns="http://www.w3.org/2000/svg">
<g filter="url(#filter0_b_126_21)">
<path d="M43.648 1.06946C44.6494 -0.0931048 46.533 0.258576 47.0475 1.70419L51.9436 15.4611C52.2456 16.3098 53.0779 16.8519 53.9763 16.785L68.5382 15.7009C70.0684 15.587 71.1516 17.1676 70.4932 18.5536L64.2277 31.7433C63.8411 32.557 64.0463 33.5288 64.7289 34.1167L75.7922 43.647C76.9548 44.6485 76.6031 46.532 75.1575 47.0465L61.4006 51.9426C60.5518 52.2447 60.0098 53.0769 60.0767 53.9753L61.1608 68.5373C61.2747 70.0675 59.6941 71.1507 58.3081 70.4923L45.1184 64.2267C44.3047 63.8402 43.3329 64.0454 42.745 64.7279L33.2147 75.7913C32.2132 76.9539 30.3297 76.6022 29.8152 75.1566L24.9191 61.3996C24.617 60.5509 23.7848 60.0089 22.8864 60.0758L8.32445 61.1598C6.79424 61.2737 5.71104 59.6932 6.36944 58.3072L12.635 45.1175C13.0215 44.3038 12.8163 43.332 12.1338 42.744L1.07041 33.2137C-0.0921599 32.2123 0.259521 30.3287 1.70513 29.8142L15.4621 24.9181C16.3108 24.6161 16.8528 23.7838 16.7859 22.8854L15.7019 8.3235C15.588 6.7933 17.1685 5.71009 18.5545 6.36849L31.7442 12.634C32.5579 13.0206 33.5297 12.8154 34.1177 12.1328L43.648 1.06946Z" fill="#F59B00"/>
<path d="M44.0268 1.39579C44.7779 0.523867 46.1906 0.787628 46.5764 1.87184L51.4725 15.6288C51.8501 16.6897 52.8904 17.3672 54.0134 17.2836L68.5753 16.1996C69.723 16.1141 70.5354 17.2995 70.0416 18.339L63.776 31.5287C63.2928 32.5459 63.5493 33.7606 64.4025 34.4956L75.4659 44.0258C76.3378 44.7769 76.0741 46.1896 74.9899 46.5755L61.2329 51.4716C60.172 51.8492 59.4945 52.8894 59.5781 54.0125L60.6621 68.5744C60.7476 69.722 59.5622 70.5344 58.5227 70.0406L45.333 63.7751C44.3158 63.2919 43.1011 63.5484 42.3662 64.4016L32.8359 75.465C32.0848 76.3369 30.6721 76.0731 30.2862 74.9889L25.3901 61.232C25.0125 60.1711 23.9722 59.4935 22.8492 59.5771L8.28733 60.6612C7.13967 60.7466 6.32727 59.5612 6.82107 58.5217L13.0866 45.332C13.5698 44.3149 13.3133 43.1002 12.4601 42.3652L1.39674 32.8349C0.524812 32.0838 0.788572 30.6711 1.87278 30.2853L15.6297 25.3892C16.6906 25.0116 17.3682 23.9713 17.2846 22.8483L16.2005 8.28638C16.1151 7.13873 17.3005 6.32632 18.34 6.82012L31.5297 13.0857C32.5468 13.5689 33.7615 13.3124 34.4965 12.4592L44.0268 1.39579Z" stroke="white"/>
</g>
<defs>
<filter id="filter0_b_126_21" x="-19.625" y="-19.626" width="116.113" height="116.113" filterUnits="userSpaceOnUse" color-interpolation-filters="sRGB">
<feFlood flood-opacity="0" result="BackgroundImageFix"/>
<feGaussianBlur in="BackgroundImageFix" stdDeviation="10"/>
<feComposite in2="SourceAlpha" operator="in" result="effect1_backgroundBlur_126_21"/>
<feBlend mode="normal" in="SourceGraphic" in2="effect1_backgroundBlur_126_21" result="shape"/>
</filter>
</defs>
</svg>
