<svg width="830" height="646" viewBox="0 0 830 646" fill="none" xmlns="http://www.w3.org/2000/svg">
<path d="M767.522 0.552185C766.43 0.82489 765.133 1.55212 764.587 2.18848C763.427 3.82477 763.427 7.64282 764.723 9.00641C765.474 9.82452 765.747 11.9153 765.747 16.2788C765.747 20.6423 765.474 22.7331 764.723 23.5513C764.177 24.1876 763.7 25.1876 763.7 25.8239C763.7 26.5511 762.949 28.1874 762.062 29.642C761.174 31.0056 760.082 33.9145 759.605 36.0963C759.127 38.1871 758.444 39.9142 758.103 39.9142C757.284 39.9142 755.168 42.9142 754.554 45.005C754.008 46.6413 754.008 46.6413 753.462 44.8232C753.121 43.6414 751.687 42.4597 749.435 41.4597C746.022 40.0052 745.886 40.0052 744.589 41.7324C743.838 42.7324 742.951 43.5505 742.542 43.5505C742.2 43.5505 741.245 44.3687 740.494 45.3686C739.743 46.3686 739.129 47.5504 739.129 48.0958C739.129 48.5503 738.651 49.0048 738.105 49.0048C737.559 49.0048 737.082 48.3685 737.082 47.6412C737.082 46.6413 736.331 46.2776 734.351 46.2776C732.509 46.2776 731.417 46.7322 731.212 47.6412C730.393 50.4594 729.574 48.823 729.574 44.5505C729.574 41.8233 729.233 39.9142 728.755 39.7325C728.072 39.3688 728.072 38.0052 728.618 33.5509C729.574 26.0057 728.141 19.915 725.547 19.915C724.864 19.915 723.568 18.7333 722.68 17.2788C721.793 15.9152 720.428 14.4607 719.677 14.0971C718.927 13.8244 717.289 12.279 715.992 10.8245C713.193 7.37006 712.033 7.7337 708.689 13.188C707.324 15.3698 705.686 17.1879 705.003 17.1879C704.321 17.1879 703.433 17.8242 702.956 18.5515C702.478 19.2787 701.727 19.915 701.249 19.915C700.362 19.915 699.134 22.824 698.519 26.5511C698.11 29.1874 698.11 29.1874 694.083 28.5511L690.056 27.9147L689.715 31.0056C689.51 32.6418 689.237 35.1872 689.169 36.7326C688.964 39.187 688.691 39.5507 685.961 40.0052C684.255 40.2779 682.753 41.0051 682.617 41.5506C682.48 42.1869 681.934 42.6414 681.388 42.6414C680.842 42.6414 680.433 43.4596 680.433 44.4595C680.433 45.4595 679.955 46.2776 679.409 46.2776C678.863 46.2776 678.385 46.8231 678.385 47.5504C678.385 48.1867 677.907 49.2775 677.361 49.9139C676.815 50.5502 676.338 52.4592 676.338 54.0955C676.338 55.8228 676.065 57.1863 675.723 57.1863C675.382 57.1863 674.631 58.6408 674.017 60.368C673.403 62.0952 672.379 63.5497 671.833 63.5497C670.536 63.5497 667.533 68.095 667.465 70.0949C667.465 71.0949 666.714 71.8221 665.144 72.1857C662.551 72.913 660.298 75.2766 659.616 78.0946C659.343 79.2764 658.592 79.9127 657.5 79.9127C656.613 79.9127 655.862 80.2764 655.862 80.7309C655.862 81.0945 654.565 81.8217 652.995 82.2762C650.948 82.8217 649.856 83.7308 649.378 85.1852C649.037 86.367 647.945 87.4579 647.126 87.8215C645.897 88.1851 645.693 88.5488 646.443 89.0942C647.058 89.6396 646.853 89.9124 645.624 89.9124C643.508 89.9124 642.826 90.5487 641.256 94.0031C640.574 95.4576 639.277 97.7302 638.39 99.0029C630.814 109.821 629.244 112.275 629.244 113.548C629.244 114.002 628.971 114.457 628.561 114.457C628.22 114.457 627.742 115.457 627.469 116.729C627.265 118.002 626.787 118.729 626.446 118.457C626.104 118.184 625.831 119.002 625.831 120.275C625.831 122.911 623.988 126.275 622.555 126.275C622.077 126.275 621.804 126.638 622.009 127.002C622.146 127.365 620.508 130.002 618.392 132.911C614.843 137.456 614.092 138.092 611.635 138.092C610.133 138.092 608.768 138.365 608.632 138.729C608.222 140.183 601.534 147.365 600.1 148.183C599.213 148.637 598.531 149.365 598.531 149.91C598.531 150.455 598.189 150.637 597.848 150.365C597.439 150.092 596.961 150.455 596.756 151.183C596.551 152.001 596.074 152.637 595.801 152.637C595.528 152.637 593.958 154.273 592.32 156.273C590.682 158.273 589.112 159.91 588.839 159.91C588.498 159.91 588.293 157.637 588.293 154.91C588.293 152.183 588.566 149.91 588.907 149.91C589.248 149.91 589.794 148.546 590.067 146.91C590.272 145.365 591.091 142.547 591.774 140.819C593.344 137.001 593.412 134.183 592.047 132.638C590.955 131.456 587.61 132.093 587.61 133.547C587.61 134.092 586.382 134.456 584.88 134.456C583.31 134.456 581.263 135.183 580.239 136.001C579.284 136.911 577.509 137.638 576.349 137.729C569.865 137.91 569.387 138.092 566.384 141.729C564.746 143.728 562.971 145.365 562.494 145.365C562.016 145.365 561.47 146.001 561.265 146.728C560.992 147.456 560.446 148.092 559.9 148.092C559.354 148.092 558.945 148.728 558.945 149.456C558.945 150.183 558.33 150.819 557.58 150.819C556.829 150.819 556.215 151.183 556.215 151.728C556.215 152.183 555.327 152.637 554.167 152.637C552.802 152.637 552.119 153.092 552.119 154.001C552.119 154.728 551.642 155.364 551.096 155.364C550.481 155.364 550.072 156.182 550.072 157.455C550.072 158.91 549.458 159.819 548.024 160.546C546.932 161.091 545.977 162.182 545.977 163C545.977 163.819 545.567 164.455 545.09 164.455C544.68 164.455 543.861 165.546 543.383 166.909C542.428 169.727 537.377 174.818 536.353 174C535.534 173.273 535.534 168.364 536.422 167.637C536.831 167.364 537.104 166.091 537.104 164.909C537.104 163.819 537.582 162.637 538.128 162.273C538.879 161.91 539.152 160.364 539.152 156.364C539.152 152.455 539.425 150.91 540.175 150.455C540.926 150.092 541.199 148.637 541.199 145.365C541.199 142.91 541.472 140.819 541.813 140.819C542.155 140.819 542.564 139.456 542.769 137.82C543.247 134.002 545.704 124.638 547.001 122.002C547.547 120.911 548.024 119.002 548.024 117.911C548.024 116.729 548.502 114.639 549.048 113.184C549.594 111.821 550.072 109.639 550.072 108.457C550.072 107.094 550.481 106.275 551.096 106.275C551.915 106.275 552.119 105.094 552.119 100.821C552.119 97.8211 552.392 95.3667 552.734 95.3667C553.348 95.3667 554.303 86.5488 554.44 80.1854C554.44 76.822 554.099 75.822 552.188 73.4584C550.55 71.5494 549.458 70.8221 548.434 71.1858C547.615 71.4585 546.796 71.7312 546.523 71.7312C546.182 71.7312 545.977 72.3676 545.977 73.0948C545.977 73.913 545.499 74.7311 544.953 75.0038C544.407 75.3674 543.929 76.0947 543.929 76.822C543.929 77.5492 543.315 78.9128 542.632 79.8218C541.882 80.8218 541.063 83.0944 540.79 84.9125C540.38 88.0033 537.991 92.6395 536.831 92.6395C535.876 92.6395 531.644 99.5483 531.644 101.094C531.644 102.003 532.053 103.366 532.599 104.003C533.077 104.73 533.35 106.275 533.214 107.457C532.941 109.184 532.463 109.639 530.757 109.73C529.596 109.73 528.504 110.275 528.368 110.73C527.958 112.457 525.979 111.821 524 109.275C522.976 107.912 522.089 107.275 522.089 107.821C522.089 108.366 520.997 109.093 519.7 109.366C518.403 109.73 517.311 110.366 517.311 110.73C517.311 111.911 511.851 115.457 511.1 114.911C510.759 114.548 510.486 112.911 510.486 111.184C510.486 106.821 508.711 101.639 507.073 101.094C506.323 100.821 505.708 100.276 505.708 99.821C505.708 99.3665 504.958 98.5484 504.002 98.0939C503.046 97.6393 502.296 96.8212 502.296 96.2758C502.296 95.1849 497.723 95.0031 497.245 96.1848C497.04 96.5485 495.198 97.1848 493.15 97.4575C489.055 98.0029 486.598 99.7302 483.595 104.185C482.503 105.821 481.001 107.184 480.25 107.184C479.09 107.184 479.022 106.639 479.295 101.003C479.841 92.2759 480.455 88.0033 481.752 85.3671C484.346 80.0945 482.298 65.2769 478.135 59.2772C476.701 57.1863 474.313 57.0955 474.313 59.0953C474.313 59.5499 473.835 59.9135 473.289 59.9135C472.743 59.9135 472.265 60.368 472.265 61.0044C472.265 62.6407 468.784 69.0041 467.897 69.0041C467.487 69.0041 466.122 70.4586 464.826 72.1857C463.529 73.913 462.232 75.3674 461.959 75.3674C461.618 75.3674 461.345 75.822 461.345 76.3674C461.345 77.4583 457.318 84.5489 456.089 85.6398C455.612 86.0034 455.202 86.8215 455.202 87.2761C455.202 89.0033 451.721 98.0939 451.039 98.0939C450.697 98.0939 450.424 98.6393 450.424 99.2756C450.424 99.9119 449.537 101.639 448.377 103.094C446.125 106.003 445.852 107.366 447.353 109.003C448.855 110.639 451.994 109.275 453.496 106.275C454.247 104.73 455.27 103.548 455.748 103.548C456.158 103.548 457.181 102.73 457.932 101.73C459.775 99.2756 460.662 99.4575 460.662 102.185C460.662 103.457 460.389 104.457 460.048 104.457C459.707 104.457 459.297 105.185 459.024 106.003C458.615 107.821 457.318 110.639 456.089 112.366C455.68 113.002 455.066 114.366 454.861 115.366C454.656 116.366 454.178 117.184 453.837 117.184C453.496 117.184 452.062 120.457 450.629 124.456C449.196 128.365 447.694 131.638 447.353 131.729C446.671 131.729 445.852 133.456 444.145 138.274C443.326 140.819 443.258 140.819 436.638 140.819C432.952 140.819 429.949 140.456 429.949 140.001C429.949 139.001 426.059 136.274 424.625 136.274C424.079 136.274 422.578 135.274 421.349 134.002C420.121 132.729 418.756 131.729 418.346 131.729C417.322 131.729 413.159 127.547 409.542 122.911C407.904 120.729 406.129 119.002 405.651 119.002C405.105 119.002 404.013 117.548 403.194 115.82C401.693 112.821 401.42 112.639 397.734 112.639C393.639 112.639 393.298 113.002 393.776 117.184C393.98 119.275 397.256 123.547 398.69 123.547C399.372 123.547 399.918 124.184 399.918 125.093C399.918 127.275 401.488 132.638 402.102 132.638C403.058 132.638 402.717 136.001 401.624 137.183C401.078 137.82 400.601 139.092 400.601 140.001C400.601 141.092 400.123 141.729 399.372 141.729C398.621 141.729 397.666 143.001 396.983 144.91C396.369 146.728 395.072 148.546 394.117 149.001C393.161 149.456 391.318 151.365 390.022 153.183C387.633 156.455 387.633 156.455 387.633 154.092C387.633 152.637 387.223 151.728 386.609 151.728C386.063 151.728 384.152 149.91 382.378 147.728C379.511 144.092 379.238 143.365 379.17 139.274C379.101 135.456 378.897 134.911 377.6 134.638C376.167 134.365 374.597 136.092 370.502 142.274C369.887 143.274 368.727 144.638 368.045 145.365C365.451 148.001 357.602 160.273 357.602 161.637C357.602 162.455 356.647 163.909 355.555 164.909C354.463 165.909 353.507 167.273 353.507 167.818C353.507 168.455 352.415 170.455 351.118 172.273C349.821 174 348.729 175.909 348.729 176.364C348.729 177.727 345.59 177.273 343.338 175.545C341.29 174.091 341.222 173.727 341.222 168C341.222 163.728 341.495 161.637 342.246 160.819C342.792 160.182 343.269 159.182 343.269 158.546C343.269 157.91 343.679 156.91 344.225 156.364C344.771 155.728 345.453 153.91 345.658 152.364C345.931 150.728 346.545 148.819 347.023 148.092C347.501 147.365 348.047 145.728 348.252 144.456C349.685 136.183 350.572 132.547 351.323 131.547C352.62 129.82 352.483 112.275 351.118 110.821C350.572 110.184 350.094 109.184 350.094 108.639C350.094 107.094 346.477 102.639 345.249 102.639C344.771 102.639 343.747 102.003 343.065 101.276C342.314 100.639 341.222 100.276 340.607 100.639C338.833 101.548 335.762 105.003 335.762 106.094C335.762 106.548 335.284 107.184 334.738 107.548C334.192 107.821 333.714 108.912 333.714 109.912C333.714 110.912 333.441 111.73 333.032 111.73C332.69 111.73 331.462 112.911 330.301 114.457C329.141 115.911 327.913 117.184 327.571 117.184C327.162 117.184 326.889 117.548 326.889 118.093C326.889 119.457 321.838 119.184 320.337 117.639C319.654 116.911 318.426 116.366 317.675 116.366C316.105 116.366 313.921 118.275 313.921 119.729C313.921 120.275 313.034 120.911 312.01 121.275C309.553 122.002 306.55 125.729 305.321 129.547C304.775 131.274 304.093 132.638 303.752 132.638C303.41 132.638 303.001 133.82 302.796 135.183C302.591 136.547 301.636 138.82 300.68 140.183C299.725 141.638 298.906 143.092 298.906 143.638C298.906 144.092 298.633 144.456 298.223 144.456C297.882 144.456 297.541 145.183 297.541 146.001C297.541 146.91 296.79 148.819 295.834 150.274C294.879 151.728 294.128 153.274 294.128 153.728C294.128 154.092 293.719 154.455 293.309 154.455C291.603 154.455 288.122 159.455 287.781 162.182C287.508 164.637 287.508 164.546 287.371 161.455C287.371 159.637 287.644 158.092 287.985 158.092C288.395 158.092 288.668 156.819 288.668 155.364C288.668 153.819 288.941 152.637 289.282 152.637C290.511 152.637 290.716 149.637 289.555 147.183C288.6 144.91 288.531 144.365 289.35 143.001C289.896 142.183 290.716 140.092 291.193 138.274C291.876 135.547 291.808 134.547 290.92 132.002C290.374 130.365 289.624 129.002 289.282 129.002C288.941 129.002 288.668 126.82 288.668 124.184C288.668 120.093 288.395 119.002 286.757 116.911C285.324 115.002 284.163 114.457 281.979 114.457H279.113V106.639C279.113 101.73 279.454 97.912 280.068 96.4575C283.208 88.3669 283.413 87.5488 282.594 85.5489C281.297 82.3672 279.454 83.0944 277.679 87.6397C276.792 89.9124 275.837 91.3668 275.495 90.9123C275.154 90.4578 275.222 89.1851 275.7 88.0942C276.11 87.0034 276.656 82.2762 276.86 77.5492L277.27 69.0041H274.949L272.629 68.9131L274.13 67.2769C276.041 65.0951 276.11 63.1861 274.267 59.8226C272.424 56.3682 269.08 56.0955 268.465 59.368C267.783 63.0043 269.558 68.095 271.537 68.095C271.946 68.095 272.288 69.5495 272.288 71.2767C272.288 73.4584 271.946 74.4584 271.264 74.4584C270.718 74.4584 270.24 75.0038 270.24 75.7311C270.24 76.4583 269.762 77.1855 269.216 77.5492C268.67 77.8219 268.192 78.8218 268.192 79.8218C268.192 82.0945 266.827 86.2761 266.008 86.2761C265.735 86.2761 265.462 87.2761 265.462 88.4578C265.462 89.6396 264.985 91.0941 264.439 91.7305C263.893 92.3668 263.415 93.4576 263.415 94.094C263.415 94.8212 263.142 95.3667 262.732 95.3667C262.391 95.3667 262.05 96.003 262.05 96.7303C262.05 97.4575 261.436 98.912 260.685 99.9119C259.934 100.912 259.32 102.73 259.32 104.003C259.32 105.457 258.91 106.275 258.296 106.275C257.75 106.275 257.272 107.094 257.272 108.093C257.272 109.093 256.999 109.912 256.658 109.912C256.317 109.912 255.771 110.821 255.498 111.911C254.679 115.366 251.88 120.457 250.106 121.729C249.15 122.366 248.399 123.729 248.399 124.638C248.399 125.547 248.058 126.275 247.717 126.275C247.307 126.275 246.693 127.184 246.352 128.274C245.942 129.456 245.396 131.002 245.055 131.729C244.714 132.456 243.554 135.456 242.53 138.274C241.506 141.183 240.414 143.547 240.073 143.547C239.8 143.547 239.527 144.183 239.527 144.91C239.527 145.728 239.049 146.547 238.503 146.819C237.957 147.183 237.479 147.91 237.479 148.637C237.479 149.274 235.773 151.91 233.725 154.546C231.678 157.092 229.972 159.819 229.972 160.546C229.972 161.273 229.221 163.182 228.333 164.728C227.378 166.364 226.422 168.727 226.218 170.091C225.945 171.546 225.467 172.636 225.126 172.636C224.784 172.636 224.511 173.273 224.511 174C224.511 174.727 224.238 175.364 223.897 175.364C223.556 175.364 223.078 176.273 222.737 177.363C222.327 179.091 222.191 178.727 221.986 175.454C221.781 173.273 221.918 171.182 222.259 170.909C222.6 170.637 223.215 168.273 223.692 165.819C224.17 163.273 225.399 159.001 226.354 156.273C227.31 153.546 228.265 149.456 228.47 147.183C228.675 144.91 229.084 142.819 229.426 142.547C229.767 142.274 230.176 140.456 230.381 138.456C230.927 132.729 232.156 127.184 234.749 118.548C235.09 117.548 235.5 114.639 235.773 112.002C236.114 107.912 235.978 107.003 234.681 105.275C233.657 103.912 232.77 103.548 231.61 103.912C229.494 104.639 223.146 113.366 223.146 115.548C223.146 117.457 219.393 127.093 215.98 133.911C214.683 136.547 213.591 139.001 213.591 139.365C213.591 139.82 212.909 141.365 212.09 142.91C210.179 146.456 209.564 147.728 207.448 153.274C206.493 155.637 205.537 157.728 205.264 157.91C204.923 158.092 204.718 159.182 204.718 160.364C204.718 161.546 204.445 162.819 204.036 163.091C203.695 163.364 203.353 164.455 203.353 165.455C203.353 166.455 202.876 167.455 202.33 167.728C201.784 168.091 201.306 169.091 201.306 170C201.306 171 200.896 172 200.35 172.273C199.804 172.546 199.19 173.818 198.917 175.091C198.712 176.273 197.893 178.182 197.211 179.273C196.46 180.272 195.846 181.727 195.846 182.454C195.846 183.181 195.163 185.272 194.276 187.09C191.409 193.272 191.068 193.999 190.249 196.454C189.771 197.908 189.157 198.999 188.884 198.999C188.611 198.999 188.338 199.544 188.338 200.272C188.338 200.999 187.86 201.726 187.314 202.09C186.768 202.363 186.29 203.181 186.29 203.999C186.29 204.726 186.017 205.362 185.744 205.362C185.403 205.362 184.721 206.999 184.243 209.09C183.697 211.18 182.878 212.999 182.4 213.271C181.922 213.544 181.513 214.271 181.513 214.998C181.513 215.726 181.035 216.271 180.489 216.271C179.943 216.271 179.465 216.817 179.465 217.453C179.465 218.089 178.919 219.271 178.305 219.998C176.326 222.362 174.005 226.18 174.005 227.18C174.005 227.725 173.732 228.089 173.323 228.089C172.981 228.089 172.64 228.452 172.64 228.998C172.64 230.18 169.91 233.816 169.432 233.18C169.228 232.998 169.569 231.816 170.183 230.634C170.797 229.543 171.275 227.816 171.275 226.907C171.275 224.725 173.323 220.998 177.076 216.089C178.715 213.908 180.353 211.18 180.762 209.908C181.786 206.635 183.083 204.09 184.038 203.272C184.516 202.908 184.925 201.817 184.925 200.908C184.925 199.999 185.403 198.726 185.949 198.09C186.495 197.454 186.973 196.272 186.973 195.454C187.041 194.636 187.792 192.363 188.679 190.363C190.386 186.727 191.546 183.454 193.457 177.636C194.003 175.909 194.822 174.455 195.163 174.455C195.573 174.455 195.846 173.636 195.846 172.546C195.846 171.546 196.187 169.818 196.665 168.727C197.552 166.637 197.893 158.092 197.074 158.092C196.801 158.092 196.46 157.273 196.187 156.364C195.573 153.819 193.866 153.274 191.819 155.092C189.362 157.182 189.703 156.728 181.308 171.182C180.489 172.636 178.646 175.545 177.281 177.818C175.848 180 174.688 182.363 174.688 183.091C174.688 183.727 174.21 184.454 173.664 184.818C173.118 185.09 172.64 186.181 172.64 187.181C172.64 188.181 172.162 189.272 171.616 189.545C171.07 189.908 170.593 190.908 170.593 191.818C170.593 192.727 169.705 194.363 168.545 195.545C167.316 196.726 166.497 198.363 166.497 199.635C166.497 200.817 166.224 201.726 165.883 201.726C165.542 201.726 164.791 203.181 164.177 204.908C163.563 206.635 162.744 208.09 162.402 208.09C161.993 208.09 161.72 209.09 161.72 210.362C161.72 211.635 161.242 212.908 160.696 213.18C160.15 213.544 159.672 214.18 159.672 214.635C159.672 215.18 158.785 217.089 157.625 218.998C156.533 220.907 155.577 223.089 155.577 223.907C155.577 224.725 155.304 225.362 154.895 225.362C154.553 225.362 154.212 225.998 154.212 226.725C154.212 227.452 153.939 228.089 153.598 228.089C153.257 228.089 152.438 229.634 151.823 231.452C151.141 233.361 150.185 235.27 149.708 235.634C149.162 235.998 148.752 237.088 148.752 237.998C148.752 238.907 148.274 240.179 147.728 240.816C147.182 241.452 146.704 242.543 146.704 243.179C146.704 243.906 146.227 244.452 145.681 244.452C145.135 244.452 144.657 245.179 144.657 245.997C144.589 247.724 140.289 254.451 139.265 254.451C138.924 254.451 138.514 255.088 138.241 255.815C138.037 256.542 137.422 257.179 136.808 257.179C136.194 257.179 135.784 257.997 135.784 259.451C135.784 260.724 135.306 261.997 134.76 262.269C134.214 262.633 133.737 263.542 133.737 264.451C133.737 265.36 133.259 266.269 132.713 266.633C132.167 266.905 131.689 268.087 131.689 269.178C131.689 270.36 131.075 272.633 130.324 274.269C129.573 275.905 128.959 277.814 128.959 278.541C128.959 279.269 128.481 279.905 127.935 279.905C127.389 279.905 126.912 280.541 126.912 281.269C126.912 281.996 126.434 282.632 125.956 282.632C124.386 282.632 120.905 288.087 120.496 291.268C120.223 292.905 119.131 295.359 118.039 296.813C116.947 298.268 115.991 300.177 115.991 300.995C115.991 301.904 115.513 302.631 114.967 302.631C114.421 302.631 113.944 303.268 113.944 303.995C113.944 304.722 113.671 305.359 113.261 305.359C112.92 305.359 111.691 306.449 110.599 307.904C107.392 311.813 106.573 312.631 105.753 312.631C105.412 312.631 105.071 313.176 105.071 313.904C105.071 314.54 104.593 315.631 104.047 316.267C103.501 316.904 103.023 318.813 103.023 320.449C103.023 322.631 102.682 323.54 102 323.54C101.385 323.54 100.976 324.358 100.976 325.721C100.976 326.994 100.703 328.267 100.293 328.539C99.9521 328.812 99.6108 330.267 99.6108 331.812C99.6108 333.267 99.3378 334.448 98.9966 334.448C98.6553 334.448 98.1093 335.357 97.8363 336.448C97.5633 337.63 96.4713 339.994 95.3792 341.721C94.2872 343.448 93.1269 345.357 92.7857 345.993C92.3762 346.63 92.1032 348.357 92.1032 349.902C92.1032 351.357 91.8984 352.629 91.5571 352.629C91.2841 352.629 90.4651 354.084 89.7143 355.902C88.9636 357.811 87.5303 360.447 86.5065 361.993C85.4145 363.447 84.5955 365.174 84.5955 365.811C84.5955 367.356 82.5479 372.629 81.9337 372.629C81.6607 372.629 80.9781 373.72 80.4321 375.083C79.8861 376.447 78.6576 378.719 77.5656 380.265C76.5418 381.81 75.7228 383.628 75.7228 384.446C75.7228 385.174 74.972 386.901 74.0165 388.264C73.0609 389.628 72.3102 391.264 72.3102 391.992C72.3102 393.537 67.4643 402.9 65.212 405.627C64.3247 406.718 63.4374 408.446 63.1644 409.445C62.9597 410.445 62.0724 411.718 61.2534 412.173C60.0931 412.809 59.6836 413.809 59.6836 415.809C59.6836 417.354 58.8646 419.9 57.8408 421.809C56.7488 423.627 55.9298 425.354 55.9298 425.718C55.9298 426.081 55.0425 427.445 53.9505 428.808C52.8584 430.172 51.6982 432.354 51.4934 433.717C51.2204 434.99 50.4696 436.808 49.7189 437.717C49.0363 438.535 48.4221 439.626 48.4221 440.081C48.4221 440.535 47.6713 441.99 46.7158 443.353C45.7603 444.717 45.0095 446.08 45.0095 446.444C45.0095 446.899 44.3952 448.08 43.6445 449.171C40.8461 453.444 40.2319 454.444 40.2319 455.08C40.1636 455.535 39.2764 457.262 38.1843 458.989C37.024 460.716 36.1368 462.625 36.1368 463.262C36.1368 463.898 35.113 465.807 33.9527 467.534C32.7242 469.261 31.0862 471.716 30.3354 473.079C29.5846 474.443 28.5608 476.079 28.1513 476.716C27.6736 477.443 27.2641 478.352 27.2641 478.897C27.2641 479.443 26.7863 479.897 26.2403 479.897C25.6943 479.897 25.2165 480.715 25.2165 481.715C25.2165 482.715 24.1927 484.806 22.9642 486.261C21.7357 487.715 20.0976 490.442 19.3469 492.351C18.6643 494.26 17.6406 496.169 17.2311 496.533C16.7533 496.897 16.3438 497.897 16.3438 498.533C16.3438 499.26 15.866 499.896 15.32 499.896C14.7057 499.896 14.2962 500.715 14.2962 502.169C14.2962 503.624 13.8867 504.442 13.2725 504.442C12.7265 504.442 12.2487 505.078 12.2487 505.896C12.2487 506.805 11.1567 508.805 9.85988 510.532C8.5631 512.26 7.47107 514.169 7.47107 514.896C7.47107 515.623 6.99331 516.26 6.4473 516.26C5.83303 516.26 5.42352 517.078 5.42352 518.532C5.42352 519.805 5.08226 520.805 4.67275 520.805C3.64898 520.805 1.39667 524.623 1.32842 526.441C1.32842 527.259 1.05541 528.259 0.645904 528.532C-0.923884 529.804 0.577653 539.804 2.89821 543.349C4.53625 545.622 6.65205 545.895 8.5631 543.986C9.24562 543.258 10.4059 542.622 11.0884 542.622C11.7709 542.622 12.4534 541.986 12.6582 541.259C12.9312 540.531 13.4772 539.895 14.0232 539.895C14.5692 539.895 14.9788 539.44 14.9788 538.986C14.9788 538.44 15.3883 538.077 15.866 538.077C16.8216 538.077 20.3706 533.895 24.3292 528.077C28.0831 522.623 28.0831 522.623 32.3829 524.077C34.567 524.896 36.6828 525.259 37.1606 524.986C37.8431 524.623 37.9796 525.35 37.7066 527.895C37.5018 529.714 37.024 531.623 36.751 532.168C36.4098 532.623 36.1368 533.713 36.1368 534.532C36.1368 535.35 35.659 536.531 35.113 537.168C33.748 538.713 33.8845 544.44 35.3178 546.804C37.4336 550.167 39.4811 551.167 40.8461 549.531C41.5287 548.713 42.4159 548.076 42.8937 548.076C43.3715 548.076 44.1905 547.44 44.7365 546.713C45.3508 545.986 46.3745 545.349 47.057 545.349C47.7396 545.349 48.4221 544.713 48.6951 543.986C48.8998 543.258 49.5824 542.622 50.1966 542.622C50.8109 542.622 51.7664 541.895 52.1759 541.077C53.0632 539.531 53.1314 539.531 54.4282 541.077C55.3837 542.259 56.3393 542.531 57.5678 542.077C58.5233 541.804 59.3423 541.168 59.3423 540.804C59.3423 540.44 60.3661 538.622 61.6629 536.804C63.3692 534.532 64.5977 533.532 66.031 533.532C67.123 533.532 68.4198 532.895 68.8976 532.168C69.4436 531.259 70.9451 530.804 73.0609 530.804C76.337 530.804 77.3608 530.168 80.6369 526.077C81.3194 525.168 82.1384 524.441 82.5479 524.441C82.8892 524.441 83.2304 523.986 83.2304 523.532C83.2304 522.35 85.7558 518.987 86.643 518.987C86.9843 518.987 87.3255 518.441 87.3255 517.714C87.3255 517.078 87.9398 516.26 88.7588 515.987C89.5778 515.714 89.9874 515.078 89.7143 514.532C89.5096 513.896 89.8509 513.532 90.6699 513.532C91.4889 513.532 92.1032 513.078 92.1032 512.623C92.1032 512.078 92.3762 511.714 92.7174 511.714C93.3317 511.714 100.566 502.26 101.522 500.169C101.795 499.624 102.955 498.624 104.047 497.806C105.207 497.078 108.074 493.897 110.463 490.806C112.92 487.715 115.582 484.533 116.469 483.806C117.356 483.079 118.039 481.806 118.039 481.17C118.039 480.443 118.448 479.897 118.926 479.897C119.336 479.806 120.837 478.17 122.134 476.079C123.431 474.079 125.069 471.625 125.751 470.716C126.365 469.716 126.912 468.625 126.912 468.261C126.912 467.807 127.731 466.898 128.823 466.171C129.846 465.443 130.87 464.534 131.143 463.989C131.484 463.443 131.689 463.534 131.689 464.171C131.689 464.807 131.075 466.171 130.324 467.171C129.573 468.17 128.959 469.534 128.959 470.261C128.959 470.989 128.481 471.716 127.935 472.079C127.389 472.352 126.912 473.443 126.912 474.443C126.912 475.443 126.434 476.261 125.888 476.261C125.205 476.261 124.864 477.17 124.864 479.079C124.864 480.625 124.386 482.443 123.84 483.17C123.294 483.988 122.816 486.17 122.816 488.17C122.816 490.17 122.339 493.079 121.724 494.624C120.701 497.169 120.769 497.624 121.861 500.351C122.953 503.078 123.226 503.26 124.796 502.351C125.751 501.715 126.707 501.078 126.912 500.715C127.116 500.442 128.823 499.442 130.802 498.624C132.986 497.624 134.897 496.078 135.716 494.624C136.467 493.26 137.286 492.442 137.491 492.806C137.764 493.169 137.491 494.079 136.876 494.897C136.262 495.715 135.784 496.988 135.784 497.624C135.784 498.26 134.692 500.715 133.395 502.987C132.099 505.351 131.007 507.623 131.007 508.078C131.007 508.623 130.529 508.987 129.983 508.987C129.369 508.987 128.959 509.805 128.959 511.26C128.959 512.714 128.55 513.532 127.935 513.532C127.389 513.532 126.912 514.169 126.912 514.896C126.912 515.532 126.502 516.532 126.024 516.896C125.069 517.623 120.086 526.714 120.086 527.714C120.086 527.986 119.472 529.259 118.721 530.532C117.971 531.804 117.356 533.622 117.356 534.532C117.356 535.531 117.083 536.259 116.674 536.259C115.24 536.259 116.059 539.713 118.244 542.44C121.315 546.44 125.137 546.531 127.662 542.713C128.618 541.349 130.051 539.895 130.87 539.531C131.689 539.168 132.372 538.531 132.372 538.077C132.372 537.713 133.532 536.713 134.897 535.986C136.33 535.259 138.105 533.804 138.787 532.713C139.538 531.623 140.63 530.804 141.313 530.804C143.087 530.804 147.114 527.077 148.206 524.441C149.298 521.714 155.577 513.532 156.601 513.532C157.01 513.532 158.717 511.442 160.423 508.896C163.972 503.442 164.859 502.078 167.59 498.806C174.278 490.533 178.032 485.261 178.442 483.443C178.715 482.443 179.329 481.715 179.807 481.715C180.353 481.715 181.786 479.988 183.014 477.806C184.243 475.716 187.109 472.352 189.43 470.261L193.662 466.534L194.139 471.17C194.344 473.716 194.617 477.443 194.754 479.443C195.095 485.443 195.777 487.17 197.62 487.17C198.508 487.17 199.258 487.624 199.258 488.17C199.258 489.624 200.76 491.351 203.012 492.442C204.991 493.351 204.991 493.442 203.49 494.079C202.671 494.351 201.511 495.806 200.965 497.169C200.009 499.624 200.077 499.896 202.603 503.442C204.036 505.533 205.537 507.169 205.879 507.169C206.22 507.169 207.721 506.351 209.155 505.351L211.885 503.442L212.09 505.442C212.226 506.533 211.885 507.805 211.339 508.169C210.793 508.623 210.11 509.987 209.906 511.26C209.633 512.532 209.155 513.532 208.814 513.532C208.404 513.532 208.131 514.169 208.131 514.896C208.131 515.623 207.517 517.078 206.766 518.078C205.947 519.168 204.718 521.623 203.899 523.714C203.08 525.714 201.715 528.441 200.828 529.714C199.941 530.986 199.054 532.986 198.849 534.168C198.576 535.35 198.235 536.259 197.962 536.259C197.688 536.259 196.733 538.35 195.846 540.986C194.958 543.622 193.389 546.713 192.297 547.895C189.362 551.258 189.635 555.44 193.184 560.076C195.163 562.712 195.777 563.985 195.231 564.712C194.822 565.258 194.481 567.076 194.481 568.712C194.481 571.076 194.754 571.712 195.777 571.712C196.528 571.712 197.552 571.076 198.166 570.348C198.712 569.621 199.463 568.985 199.804 568.985C200.146 568.985 200.965 567.348 201.647 565.349C202.33 563.349 203.08 561.712 203.285 561.712C203.558 561.712 205.401 559.712 207.448 557.167C209.496 554.713 211.407 552.622 211.612 552.622C212.567 552.622 224.238 536.622 227.241 531.259C228.948 528.259 230.995 524.986 231.883 523.896C232.702 522.805 233.384 521.623 233.384 521.259C233.384 520.896 234.34 519.35 235.432 517.896C236.592 516.532 237.479 514.896 237.479 514.441C237.479 513.896 238.367 513.532 239.39 513.532C241.711 513.532 242.939 512.078 242.939 509.351C242.939 508.169 244.168 504.896 245.601 501.987C247.103 499.078 248.468 495.806 248.741 494.624C249.423 491.351 246.147 491.988 242.53 495.897L239.527 499.169V496.806C239.527 494.624 239.254 494.442 236.933 494.442C234.817 494.442 234.135 494.897 233.521 496.624C233.111 497.806 232.019 498.987 231.064 499.351C229.221 499.987 226.559 502.896 226.559 504.351C226.559 504.805 226.081 505.624 225.535 506.26C223.419 508.623 224.511 505.169 227.583 499.896C229.289 496.988 230.654 494.169 230.654 493.624C230.654 493.079 231.064 492.624 231.61 492.624C232.087 492.624 233.452 490.624 234.613 488.079C236.728 483.624 238.981 482.079 239.732 484.624C240.005 485.533 240.278 485.533 240.687 484.806C240.96 484.261 241.847 483.534 242.666 483.17C244.236 482.534 248.399 477.443 248.399 476.17C248.399 475.716 248.877 475.352 249.423 475.352C249.969 475.352 250.447 474.716 250.447 473.898C250.447 472.988 250.857 472.625 251.471 472.988C252.085 473.261 252.495 472.988 252.495 472.079C252.495 471.352 252.972 470.534 253.518 470.261C254.064 469.898 254.542 469.17 254.542 468.443C254.542 467.261 255.702 464.989 258.159 461.534C258.774 460.625 259.32 459.444 259.32 458.989C259.32 458.444 259.798 458.08 260.344 458.08C260.89 458.08 261.367 457.625 261.367 457.08C261.367 455.353 263.62 453.626 265.667 453.535C266.759 453.535 268.056 452.898 268.67 452.171C269.421 451.08 270.513 450.898 273.175 451.353C275.154 451.717 276.86 452.353 276.929 452.717C277.065 453.171 277.475 453.535 277.884 453.535C278.225 453.535 279.113 454.444 279.727 455.535L280.956 457.444L284.641 455.171C286.825 453.898 290.033 450.626 292.49 447.353C296.449 442.081 296.79 441.808 298.496 442.899C300.271 443.99 300.953 447.444 299.588 448.535C299.247 448.808 298.906 450.444 298.906 452.171C298.906 455.535 297.677 459.898 296.722 459.898C296.449 459.898 296.176 461.716 296.176 463.989C296.176 466.989 295.903 468.08 295.152 468.08C294.606 468.08 294.128 468.625 294.128 469.352C294.128 470.079 292.763 472.17 291.125 473.988C289.487 475.807 287.917 478.17 287.712 479.261C287.508 480.352 286.689 481.624 285.87 482.17C285.051 482.624 284.027 483.806 283.617 484.806C282.457 487.352 269.489 504.442 268.67 504.442C267.783 504.442 264.234 509.714 263.688 511.896C263.483 512.805 262.869 513.532 262.255 513.532C261.64 513.532 259.047 516.441 256.521 519.896C253.928 523.441 251.471 526.259 251.13 526.259C250.72 526.259 250.447 526.805 250.447 527.35C250.447 527.986 249.423 529.714 248.126 531.259C242.257 538.259 239.527 541.804 239.527 542.531C239.527 542.895 238.708 543.804 237.684 544.531C235.773 545.895 234.34 547.349 229.357 553.076C222.396 561.167 219.188 564.258 214.956 566.985C210.725 569.712 208.131 572.53 208.131 574.439C208.131 574.894 207.517 575.803 206.766 576.439C206.015 577.075 205.401 578.075 205.401 578.621C205.401 579.166 204.036 581.166 202.33 582.984C199.873 585.711 199.258 586.893 199.258 589.257C199.258 590.893 199.736 592.893 200.282 593.893C201.442 595.984 204.445 598.075 206.22 598.075C208.336 598.075 214.751 593.529 217.891 589.711C219.597 587.711 221.44 586.257 222.464 586.257C224.102 586.257 225.057 584.802 226.286 580.621C226.491 579.712 227.037 578.984 227.378 578.984C227.719 578.984 228.402 578.439 228.948 577.803C229.426 577.257 230.859 575.712 232.156 574.439C233.384 573.166 235.295 571.076 236.319 569.712C237.957 567.53 238.844 567.167 241.984 567.167C244.646 567.167 245.806 566.803 246.079 565.803C246.352 565.076 247.034 564.439 247.717 564.439C249.696 564.439 253.109 561.712 256.112 557.803C259.252 553.713 260.344 552.531 264.097 548.986C265.394 547.804 266.827 546.167 267.237 545.349C267.715 544.622 269.762 542.349 271.878 540.349C273.994 538.35 275.973 535.622 276.314 534.259C276.724 532.804 277.406 531.713 277.884 531.713C278.908 531.623 282.525 527.623 282.525 526.532C282.525 526.168 283.276 524.623 284.232 523.168C285.187 521.714 285.938 519.987 285.938 519.259C285.938 518.623 286.689 518.078 287.576 518.078C288.531 518.078 289.487 517.623 289.692 517.169C289.896 516.623 290.647 516.26 291.33 516.26C292.012 516.26 292.968 515.623 293.446 514.896C294.742 512.805 296.176 513.26 296.176 515.805C296.176 517.078 296.585 518.078 297.063 518.078C297.609 518.078 298.36 519.078 298.769 520.35C299.861 523.532 304.229 523.805 306.755 520.896C309.143 518.169 315.218 513.532 316.583 513.532C317.265 513.532 318.63 512.532 319.654 511.26C320.678 509.987 321.975 508.987 322.521 508.987C323.135 508.987 324.5 508.078 325.66 507.078C327.162 505.624 327.844 505.351 328.459 506.169C329.892 508.078 332.008 507.169 334.601 503.533C335.966 501.533 337.127 499.533 337.127 498.987C337.127 498.533 337.468 498.078 337.946 498.078C338.56 498.078 338.56 498.351 337.946 499.169C337.468 499.806 337.127 500.896 337.127 501.624C337.127 502.351 336.376 504.26 335.42 505.896C334.465 507.533 333.714 509.26 333.714 509.714C333.714 510.169 333.305 511.078 332.759 511.623C332.281 512.169 331.667 513.896 331.394 515.441C331.189 516.987 330.37 519.259 329.619 520.532C328.868 521.805 328.254 524.259 328.254 525.896C328.254 527.623 327.981 528.986 327.708 528.986C326.616 528.986 325.66 538.168 326.479 540.895C327.367 544.077 329.824 544.44 331.53 541.713C332.213 540.804 334.533 538.713 336.785 537.259C339.038 535.804 342.519 532.441 344.566 529.895C348.388 525.168 350.299 524.441 350.641 527.714C350.845 529.623 346.75 535.804 344.566 536.713C343.884 536.986 343.201 538.44 342.928 539.804C342.723 541.259 341.768 543.349 340.812 544.44C339.925 545.622 339.174 546.895 339.174 547.349C339.174 548.349 338.833 548.895 334.192 555.803C329.414 562.803 326.889 566.894 326.889 567.439C326.889 567.712 325.046 570.439 322.794 573.621C320.542 576.803 318.699 579.803 318.699 580.166C318.699 580.621 316.105 584.439 312.897 588.711C309.689 592.984 307.096 596.893 307.096 597.256C307.096 597.711 306.618 598.075 306.072 598.075C305.526 598.075 305.048 598.711 305.048 599.438C305.048 600.165 304.571 600.802 304.025 600.802C303.479 600.802 303.001 601.165 303.001 601.529C303.001 601.983 301.772 604.074 300.271 606.165C298.769 608.256 297.541 610.529 297.541 611.256C297.541 611.983 297.268 612.619 296.858 612.619C296.517 612.619 296.176 613.256 296.176 613.983C296.176 614.71 295.766 615.347 295.357 615.347C294.06 615.347 285.255 628.164 285.255 629.982C285.255 630.801 284.778 631.71 284.232 632.073C283.686 632.346 283.208 633.164 283.208 633.8C283.208 634.528 282.73 635.619 282.184 636.255C281.433 637.073 281.16 638.709 281.297 641.618C281.502 645.345 281.706 645.8 283.208 645.982C285.119 646.254 287.781 643.436 289.282 639.618C290.033 637.709 290.784 637.164 292.49 637.164C293.719 637.164 294.879 636.8 295.084 636.346C295.288 635.982 296.38 635.346 297.472 635.073C298.633 634.709 300.203 633.8 301.022 632.891C303.615 629.982 306.413 625.801 306.413 624.801C306.413 624.255 308.461 621.346 310.986 618.437C319.245 608.892 330.301 594.62 332.144 590.984C332.759 589.802 333.919 588.984 335.011 588.984C335.966 588.984 337.127 588.62 337.468 588.257C338.628 587.257 343.269 579.348 343.269 578.53C343.269 577.439 348.252 567.712 349.207 566.894C349.685 566.53 350.094 565.712 350.094 565.258C350.094 563.894 357.466 550.895 359.854 548.167C360.469 547.44 361.015 545.986 361.015 545.077C361.015 544.258 361.492 543.258 362.039 542.986C362.585 542.622 363.062 541.895 363.062 541.259C363.062 540.622 363.54 539.895 364.086 539.531C364.632 539.259 365.11 538.44 365.11 537.713C365.11 537.077 366.202 534.895 367.499 532.986C368.795 530.986 369.887 528.804 369.887 527.986C369.887 527.168 370.365 526.259 370.911 525.896C371.457 525.623 371.935 524.805 371.935 524.077C371.935 523.441 372.413 522.623 372.959 522.259C373.505 521.987 373.983 521.168 373.983 520.35C373.983 519.623 374.256 518.987 374.529 518.987C374.802 518.987 375.552 517.896 376.167 516.441C376.849 515.078 378.555 512.26 380.125 510.078C381.627 507.896 382.855 505.805 382.855 505.442C382.855 504.987 383.333 504.442 383.879 504.078C384.425 503.805 384.903 502.987 384.903 502.26C384.903 501.533 385.108 500.806 385.449 500.624C385.722 500.442 386.814 498.624 387.906 496.442C389.817 492.715 389.953 492.624 393.707 492.624L397.529 492.715L395.687 494.533C394.595 495.533 393.776 497.169 393.776 498.169C393.776 499.078 393.298 499.896 392.752 499.896C392.069 499.896 391.728 500.806 391.728 502.624C391.728 504.442 391.387 505.351 390.704 505.351C390.158 505.351 389.68 506.169 389.68 507.169C389.68 508.169 389.407 508.987 389.066 508.987C387.838 508.987 386.063 517.714 386.131 523.532C386.131 526.986 385.79 530.623 385.176 532.35C384.63 533.895 383.879 537.35 383.538 539.986C383.128 542.895 382.241 545.531 381.217 546.895C379.033 549.713 378.76 553.985 380.262 558.349C381.285 561.167 381.9 561.712 383.606 561.712C384.698 561.712 386.336 562.349 387.292 563.167C388.861 564.53 388.998 564.439 391.728 560.894C393.298 558.894 395.141 556.985 395.891 556.712C396.574 556.349 397.188 555.713 397.188 555.258C397.188 554.803 397.598 554.44 398.075 554.44C398.485 554.44 400.874 551.713 403.263 548.531C405.72 545.258 408.108 542.622 408.654 542.622C409.2 542.622 410.907 541.077 412.477 539.259C415.207 535.986 415.275 535.895 415.48 537.986C415.616 539.077 415.207 540.804 414.661 541.622C414.046 542.531 413.569 544.349 413.569 545.713C413.569 546.986 413.091 548.349 412.545 548.622C411.862 548.986 411.521 550.44 411.521 552.713C411.521 555.076 411.18 556.531 410.497 556.803C409.2 557.531 409.2 560.258 410.497 561.712C411.384 562.621 411.521 566.348 411.521 584.166C411.521 608.256 411.248 609.892 407.085 609.892C405.856 609.892 404.696 610.438 404.491 610.983C404.286 611.892 403.877 611.892 402.853 611.165C402.171 610.619 400.259 609.801 398.69 609.438L395.823 608.801V612.074C395.823 615.074 395.687 615.347 393.776 615.347C392.411 615.347 391.728 615.801 391.728 616.71C391.728 617.619 391.045 618.074 389.749 618.074C387.633 618.074 384.016 622.074 382.787 625.71C382.446 626.801 381.9 628.255 381.627 628.982C379.17 634.8 378.828 637.437 380.398 640.073C381.354 641.8 383.265 642.436 382.514 640.8C382.241 640.255 382.992 639.891 384.22 639.891C385.449 639.891 386.473 639.346 386.677 638.528C386.95 637.8 387.701 637.164 388.384 637.164C389.066 637.164 389.68 636.709 389.68 636.255C389.68 635.709 390.499 635.346 391.455 635.346C392.479 635.346 394.731 634.619 396.574 633.8L399.918 632.164L401.556 634.891C403.194 637.618 403.194 637.618 404.628 635.891C405.447 634.891 406.061 633.619 406.061 632.891C406.061 632.255 406.812 631.255 407.767 630.619C408.654 630.073 409.269 629.346 409.132 628.982C408.927 628.619 410.361 628.073 412.203 627.71C414.115 627.346 415.616 626.71 415.616 626.255C415.616 625.71 416.162 625.346 416.913 625.346C417.595 625.346 418.551 624.71 419.029 623.983C419.506 623.255 420.462 622.619 421.144 622.619C421.827 622.619 422.578 622.255 422.783 621.71C422.987 621.255 424.694 620.619 426.536 620.255C428.447 619.892 429.949 619.346 429.949 618.892C429.949 618.437 430.563 618.074 431.314 618.074C432.952 618.074 437.457 615.256 437.457 614.256C437.457 613.892 438.344 613.528 439.436 613.528C440.596 613.528 441.62 613.165 441.893 612.71C442.098 612.165 443.736 610.892 445.51 609.71C449.059 607.438 449.059 607.438 452.472 603.529C453.769 602.074 455.202 600.802 455.68 600.802C456.089 600.802 456.567 600.529 456.704 600.074C456.84 599.711 459.843 597.438 463.392 594.984C466.941 592.529 470.627 589.984 471.514 589.348C472.401 588.711 473.357 587.893 473.562 587.439C474.244 586.166 480.66 583.53 482.98 583.53C485.438 583.53 488.372 581.984 490.01 579.893C490.625 579.166 492.126 577.53 493.355 576.257C494.583 574.985 496.494 572.894 497.518 571.439C498.542 570.076 499.634 568.985 500.043 568.985C500.385 568.985 501.34 567.985 502.159 566.712C502.978 565.439 504.002 564.439 504.412 564.439C504.821 564.439 506.05 563.621 507.142 562.53C508.302 561.44 509.121 561.167 509.121 561.712C509.121 562.349 508.507 562.985 507.756 563.258C506.869 563.53 506.391 564.53 506.391 565.894C506.391 567.167 505.231 569.621 503.456 571.985C501.818 574.257 500.658 576.53 500.794 577.075C501.272 578.984 500.248 582.621 499.224 582.621C498.678 582.621 498.201 582.166 498.201 581.53C498.201 580.712 497.996 580.712 497.382 581.53C496.904 582.166 495.88 582.621 495.129 582.621C492.945 582.621 491.375 585.439 491.375 589.257C491.375 592.529 491.444 592.62 493.764 592.62C497.109 592.62 502.227 588.257 501.272 586.257C500.999 585.62 501.408 585.439 502.637 585.893C504.412 586.439 511.168 582.984 511.168 581.53C511.168 581.075 511.646 580.802 512.192 580.802C512.738 580.802 514.376 579.348 515.878 577.621C517.311 575.894 518.949 574.439 519.563 574.439C520.178 574.439 521.201 573.166 521.884 571.712C522.498 570.167 523.454 568.985 524 568.985C524.478 568.985 526.047 567.985 527.412 566.712C528.982 565.258 530.893 564.439 532.463 564.439C533.896 564.439 535.057 563.985 535.057 563.53C535.057 562.985 535.466 562.621 536.012 562.621C536.558 562.621 537.104 561.985 537.377 561.258C537.582 560.531 538.06 559.894 538.537 559.894C538.947 559.894 540.448 558.622 541.882 557.167C543.315 555.622 544.612 554.44 544.817 554.44C545.636 554.44 550.072 547.986 550.072 546.804C550.072 544.44 552.938 545.167 555.464 548.076C558.126 551.258 559.764 551.531 561.675 548.986C563.313 546.804 563.449 543.258 562.016 541.713C561.129 540.713 561.402 540.349 563.586 538.895C565.019 537.895 566.862 536.35 567.613 535.441C568.295 534.532 569.592 533.259 570.411 532.713C571.639 531.895 571.912 530.804 571.912 527.35C571.912 523.441 572.185 522.714 575.53 518.259C577.441 515.714 580.034 512.532 581.126 511.351C582.287 510.169 583.652 507.987 584.198 506.624C584.744 505.169 587.269 501.169 589.794 497.715C592.32 494.26 594.708 490.17 595.186 488.624C596.824 482.715 597.916 479.897 598.531 479.897C598.94 479.897 599.213 479.261 599.213 478.534C599.213 477.806 599.554 477.17 599.896 477.17C600.305 477.17 600.851 476.443 601.056 475.534C601.329 474.716 602.353 472.352 603.445 470.443C604.469 468.534 605.356 465.898 605.356 464.716C605.356 463.534 605.97 461.898 606.721 461.08C607.472 460.171 608.086 458.989 608.086 458.353C608.086 457.807 609.041 455.898 610.133 454.262C611.294 452.626 612.181 450.898 612.181 450.353C612.181 449.898 613.205 447.989 614.433 446.262C615.662 444.535 616.89 442.353 617.163 441.444C617.368 440.626 617.914 439.899 618.324 439.899C618.665 439.899 619.006 439.262 619.006 438.535C619.006 437.899 619.416 436.899 619.962 436.535C620.439 436.172 621.873 433.899 623.101 431.445C624.261 429.081 625.558 427.172 625.9 427.172C626.241 427.172 626.514 426.627 626.514 425.899C626.514 425.172 627.128 424.354 627.811 423.99C628.561 423.718 629.858 421.536 630.677 419.172C631.496 416.809 632.656 414.263 633.271 413.445C633.885 412.718 635.728 409.809 637.434 407.173C639.14 404.446 641.051 401.628 641.734 400.9C642.348 400.082 642.894 399.082 642.894 398.537C642.894 397.991 643.508 396.991 644.259 396.264C645.01 395.537 645.624 394.446 645.624 393.81C645.624 393.173 646.102 392.628 646.648 392.628C647.194 392.628 647.672 392.264 647.672 391.81C647.672 390.628 656.954 378.083 657.841 378.083C658.251 378.083 658.592 377.629 658.592 377.174C658.592 375.992 659.548 374.356 662.551 370.356C663.711 368.72 664.735 366.538 664.735 365.447C664.735 364.356 665.144 363.538 665.759 363.538C666.305 363.538 666.782 363.265 666.782 362.811C666.782 362.447 668.625 359.538 670.877 356.357C673.13 353.175 674.972 350.266 674.972 349.811C674.972 349.357 675.45 348.993 675.996 348.993C676.542 348.993 677.02 348.448 677.02 347.721C677.02 346.721 679.068 342.721 681.798 338.357C682.139 337.721 682.48 336.812 682.48 336.266C682.48 335.812 682.958 335.357 683.504 335.357C684.05 335.357 684.528 334.721 684.528 333.994C684.528 333.176 685.005 332.358 685.552 332.085C686.098 331.721 686.575 330.994 686.575 330.358C686.575 329.721 687.053 328.994 687.599 328.63C688.145 328.358 688.623 327.54 688.623 326.721C688.623 325.994 688.964 325.358 689.305 325.358C689.715 325.358 689.988 324.994 689.988 324.449C689.988 323.449 692.308 319.631 694.288 317.267C694.902 316.54 695.448 315.267 695.448 314.54C695.448 313.722 696.13 312.267 697.018 311.267C697.905 310.267 699.202 308.086 699.884 306.449C700.635 304.904 701.659 303.359 702.273 303.086C702.887 302.813 704.116 300.995 705.071 299.086C705.959 297.086 707.392 294.995 708.279 294.359C709.098 293.723 709.781 292.632 709.781 291.995C709.781 291.268 711.487 288.359 713.535 285.45C715.582 282.541 717.289 279.814 717.289 279.36C717.289 278.905 717.971 277.996 718.722 277.269C720.155 276.178 720.223 276.178 719.746 278.996C719.541 280.632 719.336 282.269 719.336 282.723C719.336 283.178 718.858 283.541 718.312 283.541C717.766 283.541 717.289 284.178 717.289 284.905C717.289 285.632 717.016 286.268 716.606 286.268C716.265 286.268 715.924 286.905 715.924 287.632C715.924 288.359 715.309 289.814 714.558 290.814C713.808 291.814 713.193 293.632 713.193 294.904C713.193 296.359 712.784 297.177 712.17 297.177C711.624 297.177 711.146 297.723 711.146 298.268C711.214 300.359 706.027 312.631 705.208 312.631C704.73 312.631 704.321 313.631 704.321 314.813C704.321 315.995 703.843 317.176 703.297 317.54C702.751 317.813 702.273 318.631 702.273 319.449C702.273 320.176 701.795 320.813 701.249 320.813C700.703 320.813 700.226 321.449 700.226 322.267C700.226 323.085 699.543 324.994 698.724 326.54C696.472 330.721 695.448 333.539 695.448 335.448C695.448 336.448 694.97 337.176 694.424 337.176C693.878 337.176 693.4 337.994 693.4 338.903C693.4 339.812 692.035 342.539 690.397 344.902C688.759 347.175 687.19 350.175 686.917 351.448C686.439 353.902 683.982 359.175 683.026 359.72C682.753 359.902 682.48 360.811 682.48 361.811C682.48 362.72 682.002 363.538 681.456 363.538C680.91 363.538 680.433 364.174 680.433 364.902C680.433 365.629 680.091 366.265 679.75 366.265C679.341 366.265 678.726 367.174 678.317 368.265C677.634 370.356 673.607 378.538 672.311 380.538C671.901 381.174 671.56 382.083 671.56 382.537C671.56 383.083 671.15 383.81 670.741 384.174C669.717 384.992 668.489 387.537 667.465 390.537C667.124 391.719 666.578 392.628 666.305 392.628C665.963 392.628 664.871 394.537 663.711 396.719C662.619 398.991 661.459 400.809 661.186 400.809C660.844 400.809 660.64 401.446 660.64 402.173C660.64 402.991 660.162 403.809 659.616 404.082C659.07 404.446 658.592 405.173 658.592 405.9C658.592 406.627 658.319 407.173 657.978 407.173C657.637 407.173 657.159 407.9 656.886 408.9C656.681 409.809 655.521 411.991 654.292 413.627C653.064 415.354 651.699 417.809 651.153 419.172C650.607 420.536 649.651 422.536 648.9 423.445C648.218 424.445 647.672 425.718 647.672 426.263C647.672 426.718 647.262 427.172 646.716 427.172C645.624 427.172 642.212 431.263 642.212 432.626C642.212 433.081 641.939 433.535 641.529 433.535C641.188 433.535 640.847 434.172 640.847 434.899C640.847 435.626 640.369 436.263 639.823 436.263C639.277 436.263 638.799 436.899 638.799 437.626C638.799 438.353 638.39 438.99 637.98 438.99C637.502 438.99 636.069 441.081 634.772 443.535C633.544 446.08 632.247 448.08 631.906 448.08C631.564 448.08 631.291 448.717 631.291 449.444C631.291 450.171 631.018 450.808 630.677 450.808C630.336 450.808 629.858 452.08 629.585 453.626C629.312 455.171 628.971 456.171 628.766 455.898C628.357 455.353 624.466 460.262 624.466 461.353C624.466 461.716 623.988 462.443 623.374 462.989C622.76 463.625 622.282 465.625 622.214 468.08C622.146 471.352 621.804 472.261 620.235 473.443C619.143 474.261 617.914 475.988 617.436 477.443C616.686 479.625 616.276 479.897 613.068 479.897C610.406 479.897 609.451 480.261 609.451 481.17C609.451 481.897 609.11 482.624 608.632 482.806C608.154 483.079 607.813 484.988 607.745 487.715C607.745 491.533 607.54 492.17 606.38 492.17C605.288 492.17 604.946 492.897 604.81 495.624C604.673 497.533 603.922 499.896 603.103 501.078C602.284 502.26 600.783 504.533 599.759 506.169C598.735 507.714 597.78 509.078 597.575 508.987C596.142 508.896 595.801 509.169 595.801 510.351C595.801 511.078 595.391 511.714 594.913 511.714C594.435 511.714 593.48 513.26 592.729 515.078C591.978 516.987 591.023 518.896 590.545 519.259C590.067 519.623 589.658 520.35 589.658 520.896C589.658 522.077 582.764 530.804 581.809 530.804C581.399 530.804 576.963 536.259 572.8 541.895C571.025 544.349 569.182 546.258 568.705 546.258C568.227 546.258 567.817 546.895 567.817 547.622C567.817 548.349 566.725 549.622 565.429 550.44C564.132 551.258 563.04 552.44 563.04 552.985C563.04 554.167 560.651 557.167 559.695 557.167C559.354 557.167 558.74 557.803 558.262 558.531C557.307 560.076 554.645 560.349 552.802 558.985C550.891 557.622 546.182 559.803 544.271 562.803C543.383 564.167 542.155 567.258 541.472 569.621C540.79 571.985 539.698 575.166 538.947 576.712C536.831 580.893 532.872 586.257 531.78 586.257C529.869 586.257 526.866 589.348 526.866 591.348C526.866 593.62 530.552 598.984 532.053 598.984C532.599 598.984 533.009 599.347 533.009 599.893C533.009 600.347 533.487 600.802 534.033 600.802C534.579 600.802 535.057 600.438 535.057 599.984C535.057 599.529 535.944 598.893 537.104 598.529C538.196 598.165 539.288 597.529 539.493 597.075C539.766 596.62 540.585 596.256 541.472 596.256C542.496 596.256 544.134 594.529 546.318 591.257C548.502 588.075 550.208 586.257 551.232 586.257C552.051 586.257 552.938 585.802 553.143 585.348C553.348 584.893 554.44 584.439 555.464 584.439C556.488 584.439 557.648 583.984 558.057 583.439C558.467 582.893 559.559 581.893 560.446 581.348C561.265 580.802 562.425 579.257 562.835 577.984C563.859 575.075 568.159 568.985 569.114 568.985C569.524 568.985 569.865 568.439 569.865 567.803C569.865 566.53 574.37 558.803 578.601 553.076C580.034 551.076 581.945 547.622 582.833 545.531C583.788 543.349 585.699 540.44 587.064 539.077C590.272 535.986 597.166 527.259 597.166 526.441C597.166 525.168 600.783 523.623 602.694 524.168C603.991 524.441 605.765 524.077 607.472 522.987C609.86 521.623 610.338 521.532 610.884 522.714C611.84 524.532 611.294 535.622 610.27 536.077C609.792 536.259 609.451 537.531 609.451 538.986C609.451 540.349 608.973 541.986 608.427 542.622C607.13 544.077 607.13 548.44 608.427 549.895C608.973 550.531 609.451 551.531 609.451 552.258C609.451 553.349 611.771 555.531 614.433 556.803C615.048 557.076 615.594 557.894 615.594 558.531C615.594 559.258 616.208 560.076 616.959 560.349C617.709 560.621 618.324 561.44 618.324 561.985C618.324 563.44 622.76 567.167 624.466 567.167C625.217 567.167 625.831 567.53 625.831 567.985C625.831 568.439 626.992 569.076 628.425 569.439C631.155 570.076 634.704 572.53 634.704 573.712C634.704 574.075 636.137 574.439 637.98 574.439C639.959 574.439 640.847 574.712 640.301 575.257C638.731 576.53 641.939 577.166 650.47 577.166C658.183 577.166 658.456 577.075 659.684 574.894C660.367 573.621 662.551 571.076 664.462 569.348C666.646 567.348 668.216 565.076 668.693 563.167C669.171 561.44 669.99 559.803 670.536 559.531C671.082 559.258 671.56 557.985 671.56 556.712C671.56 555.44 671.901 554.44 672.311 554.44C673.334 554.44 674.29 552.985 677.634 546.258C679.204 542.986 680.979 539.986 681.525 539.622C682.071 539.259 682.48 538.259 682.48 537.441C682.48 536.622 682.89 536.259 683.504 536.622C684.118 536.895 684.528 536.622 684.528 535.713C684.528 534.986 685.21 533.441 686.098 532.35C686.985 531.259 687.94 529.714 688.145 528.986C688.418 528.259 689.237 526.35 689.988 524.896C690.739 523.35 691.558 521.441 691.762 520.532C692.035 519.714 692.445 518.987 692.786 518.987C693.127 518.987 693.4 518.35 693.4 517.623C693.4 516.896 693.742 516.26 694.083 516.26C694.492 516.26 695.107 515.35 695.448 514.169C696.472 511.169 697.7 508.623 698.724 507.805C699.134 507.442 699.543 506.442 699.543 505.805C699.543 505.078 699.884 504.442 700.226 504.442C700.635 504.442 700.908 503.805 700.908 503.078C700.908 502.351 701.181 501.715 701.522 501.715C702.137 501.715 705.686 495.079 706.505 492.351C706.778 491.533 707.324 490.806 707.733 490.806C708.075 490.806 708.416 490.079 708.416 489.17C708.416 488.352 709.167 486.806 710.122 485.897C711.078 484.988 711.828 483.624 711.828 482.988C711.828 482.352 713.057 480.079 714.558 477.897C716.06 475.716 717.289 473.534 717.289 472.988C717.289 472.352 717.766 471.716 718.312 471.352C718.858 471.079 719.336 469.989 719.336 468.989C719.336 467.989 719.677 467.171 720.019 467.171C720.428 467.171 720.701 466.625 720.701 465.898C720.701 465.171 721.657 463.171 722.749 461.534C723.909 459.898 724.796 458.171 724.796 457.625C724.796 457.08 725.41 455.08 726.161 453.08C726.912 451.08 727.526 449.898 727.526 450.353C727.526 450.898 728.004 450.08 728.55 448.626C729.096 447.262 729.574 445.444 729.574 444.808C729.574 444.08 729.983 443.535 730.529 443.535C731.007 443.535 731.621 442.808 731.894 441.899C732.304 440.262 732.85 438.99 735.921 433.263C736.945 431.263 737.764 429.081 737.764 428.354C737.764 427.717 738.105 427.172 738.447 427.172C738.856 427.172 739.129 426.354 739.129 425.354C739.129 424.354 739.47 423.536 739.812 423.536C740.221 423.536 740.494 422.899 740.494 422.172C740.494 421.354 740.972 420.536 741.518 420.263C742.064 419.9 742.542 419.172 742.542 418.445C742.542 417.718 743.019 417.172 743.565 417.172C744.18 417.172 744.589 416.354 744.589 415.173C744.589 414.082 745.34 412.264 746.159 411.264C748.002 409.173 749.367 406.082 749.367 404.082C749.367 403.264 750.322 400.9 751.414 398.81C752.575 396.81 753.462 394.719 753.462 394.264C753.462 393.901 754.008 392.719 754.69 391.81C756.67 388.901 757.148 387.81 758.922 383.083C759.878 380.538 761.038 378.174 761.516 377.81C761.925 377.447 762.335 376.356 762.335 375.447C762.335 374.538 762.812 373.265 763.358 372.629C763.904 371.992 764.382 370.992 764.382 370.356C764.382 369.72 764.86 368.72 765.406 368.083C765.952 367.447 766.43 365.902 766.43 364.538C766.43 362.902 766.635 362.538 767.044 363.356C767.453 364.265 767.727 363.811 768 361.902C768.204 360.447 768.819 358.629 769.365 357.902C769.911 357.175 771.139 354.266 772.163 351.448C773.118 348.63 774.21 346.266 774.62 346.266C774.961 346.266 775.302 345.266 775.302 343.993C775.302 342.721 775.78 341.448 776.326 341.175C776.872 340.812 777.35 339.812 777.35 338.812C777.35 337.266 778.169 334.63 780.148 329.903C780.49 329.176 781.172 327.267 781.718 325.721C782.264 324.176 783.015 322.54 783.424 322.267C783.834 321.903 784.175 320.267 784.175 318.54C784.175 316.722 784.585 315.358 785.199 314.995C785.745 314.722 786.223 313.54 786.223 312.267C786.223 311.086 786.496 309.904 786.769 309.722C787.451 309.449 789.089 305.54 790.386 301.45C790.796 300.086 791.41 298.995 791.751 298.995C792.024 298.995 792.502 297.632 792.775 295.904C792.98 294.177 793.594 292.541 794.14 292.268C794.686 291.995 795.095 290.632 795.095 289.268C795.095 287.541 795.3 287.087 795.71 287.905C796.392 289.45 797.143 287.359 797.143 283.814C797.143 282.541 798.03 278.996 799.122 275.905C800.214 272.814 801.306 268.905 801.579 267.178C801.852 265.451 802.467 263.087 803.013 261.997C803.559 260.906 803.968 258.724 803.968 257.179C803.968 255.361 804.309 254.451 804.992 254.451C805.606 254.451 806.016 253.633 806.016 252.361C806.016 251.27 806.493 249.543 807.039 248.633C807.586 247.634 808.063 245.452 808.063 243.815C808.063 242.179 808.405 240.816 808.746 240.816C809.155 240.816 809.428 240.27 809.428 239.543C809.428 238.907 809.906 237.816 810.452 237.179C811.066 236.452 811.476 234.452 811.476 231.816C811.476 229.452 811.954 226.725 812.5 225.725C813.046 224.816 813.523 222.271 813.523 220.089C813.523 217.998 813.865 216.271 814.206 216.271C814.615 216.271 814.888 215.271 814.888 214.089C814.888 212.908 815.366 211.726 815.912 211.362C816.526 211.089 816.936 209.726 816.936 208.181C816.936 206.726 817.209 205.272 817.55 204.999C817.823 204.726 818.301 202.363 818.574 199.817C818.847 197.272 819.53 194.545 820.076 193.817C820.622 193.09 821.031 190.818 821.031 188.545C821.031 186.363 821.372 184.272 821.714 184C822.123 183.727 822.396 180.909 822.396 177.818C822.464 174.273 822.806 171.546 823.42 170.455C824.034 169.364 824.444 166.637 824.444 163.819C824.444 161.182 824.785 159.001 825.126 159.001C825.536 159.001 825.809 156.546 825.809 153.455C825.809 149.819 826.15 147.546 826.832 146.637C827.515 145.728 827.856 143.456 827.856 140.274C827.856 137.547 828.198 135.365 828.539 135.365C828.948 135.365 829.221 133.729 829.221 131.82C829.221 129.82 828.948 127.911 828.539 127.638C828.198 127.365 827.856 125.911 827.856 124.366C827.856 122.547 827.515 121.729 826.696 121.638C824.375 121.457 822.737 121.911 821.714 123.093C821.099 123.729 818.574 124.184 814.957 124.275C810.998 124.275 809.087 124.638 808.678 125.547C808.2 126.456 808.063 126.365 808.063 125.184C808.063 124.366 808.405 123.366 808.746 123.093C809.497 122.457 809.633 119.002 809.019 116.82C808.268 114.275 806.289 115.184 804.924 118.729C804.241 120.638 803.422 122.275 803.149 122.457C802.808 122.638 802.603 123.638 802.603 124.729C802.603 125.82 802.33 127.365 801.921 128.093C801.375 129.274 801.306 129.274 801.033 128.093C800.897 127.365 800.351 125.184 799.941 123.275C799.191 120.275 799.259 119.275 800.214 116.548C800.897 114.73 801.579 111.73 801.716 109.821C801.921 107.912 802.535 105.821 803.013 105.275C803.559 104.73 803.968 102.73 803.968 100.821C803.968 98.6393 804.309 97.1848 804.992 96.8212C805.538 96.5485 806.016 95.3667 806.016 94.1849C806.016 92.9122 806.493 91.4578 807.039 90.8214C807.586 90.1851 808.063 88.7306 808.063 87.5488C808.063 86.367 808.405 85.3671 808.746 85.3671C809.155 85.3671 809.428 84.9125 809.428 84.3671C809.428 83.8217 809.838 82.0945 810.316 80.5491C812.704 73.0948 813.114 70.7313 813.387 63.3679L813.592 55.3682L811.749 54.3683C806.971 52.0047 799.259 56.9136 798.099 63.0043C797.826 64.4588 797.075 65.8224 796.392 66.0042C795.641 66.2769 795.095 67.2769 795.095 68.4586C795.095 71.5494 794.276 74.4584 793.662 73.913C793.321 73.6403 793.048 73.913 793.048 74.3675C793.048 74.9129 792.57 75.3674 792.024 75.3674C791.478 75.3674 791 76.0038 791 76.731C791 77.4583 790.523 78.0946 789.977 78.0946C789.294 78.0946 788.953 79.0037 788.953 80.8218C788.953 82.2762 788.68 83.549 788.27 83.549C786.427 83.549 782.128 93.1849 782.128 97.2757C782.128 98.2756 780.421 101.276 778.374 104.003C776.326 106.821 774.62 109.548 774.62 110.184C774.62 110.821 774.074 112.002 773.46 112.73C771.276 115.275 769.433 118.638 768.409 121.547C767.863 123.184 767.044 124.456 766.635 124.456C766.157 124.456 765.747 125.456 765.747 126.729C765.747 128.002 765.474 129.002 765.065 129.002C764.723 129.002 763.836 130.729 763.017 132.82C760.765 139.001 758.171 144.456 757.489 144.456C757.148 144.456 756.875 145.456 756.875 146.728C756.875 148.001 756.602 149.001 756.328 149.001C754.963 149.001 748.002 163.273 748.002 166.091C748.002 166.818 747.388 167.182 746.5 167C744.999 166.728 744.93 166.273 744.726 158.728C744.521 151.274 744.657 150.365 746.978 143.91C748.275 140.092 749.367 135.82 749.367 134.456C749.367 133.002 749.64 131.638 749.981 131.365C750.937 130.547 750.049 127.275 748.684 126.729C746.5 125.82 746.568 123.547 749.026 118.82C750.322 116.366 751.414 113.73 751.414 113.002C751.414 111.911 753.394 109.912 754.417 109.912C754.622 109.912 754.827 111.002 754.827 112.275C754.827 114.911 756.465 117.093 758.444 117.184C759.605 117.184 762.335 114.184 762.335 112.821C762.335 112.457 763.154 110.912 764.246 109.457C765.952 107.003 766.089 106.003 766.43 97.6393C766.703 90.0942 767.044 88.0942 768.273 86.0034C769.228 84.3671 770.047 80.9127 770.593 76.6401C771.003 73.0039 771.685 69.9131 771.958 69.9131C773.187 69.9131 772.572 61.0044 771.071 57.2772C769.501 53.3683 769.569 52.7319 772.299 42.1869C772.845 40.0961 773.255 37.6417 773.255 36.7326C773.255 35.7326 773.733 34.0963 774.279 33.1873C775.029 31.8237 775.302 28.8238 775.302 21.6423C775.302 16.2788 775.029 11.6426 774.688 11.3699C774.415 11.0972 773.937 9.18817 773.733 7.09735C773.391 3.37024 771.617 -0.17511 770.252 0.00671387C769.842 0.0976562 768.614 0.370361 767.522 0.552185ZM391.728 177.636C391.728 179.909 391.455 181.727 391.045 181.727C390.022 181.727 386.95 185.545 386.95 186.727C386.95 187.363 386.473 189.181 385.858 190.818C385.039 192.999 384.835 195.272 385.108 199.544L385.449 205.362H382.446C380.808 205.362 379.443 205.181 379.443 204.999C379.443 203.362 381.354 199.454 382.173 199.454C382.992 199.454 383.128 198.454 382.992 194.726C382.719 189.454 383.47 187.09 387.155 181.818C388.52 179.818 389.68 177.363 389.68 176.454C389.68 175.545 389.885 174.455 390.158 174.182C391.25 172.727 391.728 173.818 391.728 177.636ZM791 191.454C791 193.817 791.342 197.09 791.819 198.726C792.775 202.272 791.615 211.999 789.908 214.18C789.362 214.908 788.953 216.271 788.953 217.271C788.953 218.18 788.68 218.998 788.27 218.998C787.929 218.998 787.588 219.544 787.588 220.271C787.588 220.907 787.11 221.998 786.564 222.634C786.018 223.271 785.54 224.543 785.54 225.453C785.54 226.453 785.267 227.18 784.994 227.18C784.38 227.18 781.445 234.543 781.445 236.179C781.445 236.725 781.172 237.179 780.763 237.179C780.421 237.179 780.08 238.179 780.08 239.361C780.08 240.543 779.602 241.725 779.056 242.088C778.51 242.361 778.033 243.543 778.033 244.815C778.033 246.088 777.76 247.361 777.35 247.634C777.009 247.906 776.667 249.179 776.667 250.452C776.667 251.724 776.19 252.906 775.644 253.179C775.098 253.542 774.62 254.361 774.62 255.088C774.62 255.724 773.869 257.27 772.914 258.451C771.958 259.633 771.207 260.997 771.207 261.451C771.207 261.997 770.73 262.906 770.184 263.542C769.638 264.178 769.16 265.451 769.16 266.36C769.16 267.36 768.887 268.087 768.477 268.087C768.136 268.087 767.795 268.905 767.795 269.814C767.795 270.724 767.317 271.724 766.771 272.087C766.225 272.36 765.747 273.633 765.747 274.905C765.747 276.178 765.474 277.178 765.133 277.178C764.792 277.178 763.768 279.087 762.881 281.45C761.993 283.905 761.106 285.996 760.901 286.268C760.628 286.541 760.287 287.632 760.014 288.723C759.741 289.905 759.195 290.814 758.854 290.814C758.513 290.814 758.24 291.268 758.24 291.905C758.24 292.45 757.489 294.268 756.533 295.904C755.578 297.541 754.827 299.632 754.827 300.541C754.759 301.45 753.871 303.177 752.779 304.45C751.619 305.631 750.732 307.177 750.732 307.813C750.732 308.449 750.459 308.995 750.049 308.995C749.708 308.995 749.367 310.177 749.367 311.722C749.367 313.904 748.889 314.813 746.637 316.449C745.135 317.631 743.907 318.994 743.907 319.54C743.907 320.176 743.429 320.813 742.883 321.176C742.269 321.449 741.859 322.812 741.859 324.631C741.859 326.903 741.245 328.358 739.47 330.539C738.174 332.176 737.082 334.357 737.082 335.357C737.082 336.357 736.604 337.176 736.058 337.176C735.512 337.176 735.034 337.721 735.034 338.357C735.034 338.994 734.215 340.721 733.191 342.266C732.099 343.812 730.529 346.812 729.642 348.993C728.687 351.266 727.117 353.993 726.025 355.175C725.001 356.357 724.114 357.72 724.114 358.175C724.114 358.629 723.226 360.266 722.066 361.72C720.974 363.175 720.019 364.72 720.019 365.174C720.019 365.629 719.404 366.72 718.654 367.629C717.903 368.538 717.289 369.629 717.289 370.083C717.289 370.538 716.401 372.083 715.241 373.538C714.149 374.992 713.193 376.629 713.193 377.174C713.193 377.629 712.716 378.083 712.17 378.083C711.624 378.083 711.146 378.901 711.146 379.901C711.146 380.901 710.805 381.719 710.463 381.719C710.054 381.719 709.44 382.628 709.03 383.719C708.689 384.901 707.46 388.083 706.368 390.81C705.276 393.537 704.389 396.355 704.389 396.9C704.321 397.537 703.843 398.082 703.297 398.082C702.683 398.082 702.273 398.991 702.273 400.446C702.273 402.173 702 402.718 701.249 402.264C700.635 401.991 700.226 402.264 700.226 402.991C700.226 403.628 698.997 406.446 697.496 409.264C695.994 411.991 694.766 414.718 694.766 415.263C694.766 415.809 694.492 416.263 694.083 416.263C693.742 416.263 693.4 416.9 693.4 417.627C693.4 418.354 692.923 418.991 692.377 418.991C691.831 418.991 691.353 419.809 691.353 420.809C691.353 421.809 690.875 422.899 690.329 423.172C689.783 423.536 689.305 424.263 689.305 424.99C689.305 425.627 688.896 426.536 688.418 426.899C687.872 427.263 687.258 428.263 687.053 428.99C686.78 429.717 686.302 430.99 685.961 431.717C685.62 432.445 684.869 434.445 684.391 435.99C683.913 437.626 683.299 438.99 683.026 438.99C682.685 438.99 682.48 439.626 682.48 440.444C682.48 441.353 682.071 441.717 681.456 441.353C680.842 441.081 680.433 441.353 680.433 442.081C680.433 442.808 679.955 443.535 679.409 443.899C678.863 444.171 678.385 445.262 678.385 446.262C678.385 447.262 677.907 448.08 677.361 448.08C676.815 448.08 676.338 448.717 676.338 449.444C676.338 450.171 676.065 450.808 675.655 450.808C675.314 450.808 674.972 451.171 674.972 451.717C674.972 452.989 672.447 456.262 671.969 455.626C671.765 455.262 671.56 456.171 671.56 457.444C671.56 458.989 671.219 459.898 670.536 459.898C669.99 459.898 669.512 460.534 669.512 461.262C669.512 461.989 669.171 462.625 668.83 462.625C668.42 462.625 667.943 461.989 667.738 461.262C666.987 458.625 662.687 460.716 662.687 463.716C662.687 464.443 661.868 466.08 660.844 467.443C659.752 468.716 658.387 470.807 657.773 471.988C657.091 473.261 655.589 474.534 654.429 474.897C652.859 475.352 652.518 475.716 653.2 476.352C653.951 476.988 653.883 477.17 652.995 477.17C651.084 477.17 651.562 475.443 654.838 470.079C656.545 467.352 658.114 464.171 658.319 462.989C658.524 461.898 659.138 460.716 659.684 460.443C660.23 460.171 660.64 459.08 660.64 458.08C660.64 457.08 661.117 456.262 661.663 456.262C662.209 456.262 662.687 455.626 662.687 454.898C662.687 454.08 663.165 453.262 663.711 452.989C664.257 452.626 664.735 451.807 664.735 451.171C664.735 450.444 665.008 449.353 665.417 448.717C668.83 443.171 669.512 441.626 669.512 439.444C669.512 438.172 669.99 436.444 670.536 435.717C671.287 434.717 671.56 432.263 671.56 427.081C671.56 421.263 671.765 419.9 672.584 419.9C673.198 419.9 673.607 419.081 673.607 417.718C673.607 416.536 674.836 412.718 676.338 409.355C677.839 405.9 679.068 402.718 679.068 402.264C679.068 401.809 679.818 400.082 680.774 398.446C681.729 396.81 682.48 394.81 682.48 393.992C682.48 393.082 682.89 392.628 683.367 392.901C683.982 393.173 684.801 391.901 685.62 389.355C686.302 387.174 687.121 385.355 687.326 385.355C687.599 385.355 688.009 384.356 688.213 383.083C688.486 381.81 688.964 380.81 689.305 380.81C689.715 380.81 689.988 380.356 689.988 379.901C689.988 379.356 690.739 377.992 691.694 376.81C692.65 375.629 693.4 373.901 693.4 372.811C693.4 371.811 693.878 370.811 694.424 370.447C694.97 370.174 695.448 369.083 695.448 368.083C695.448 367.083 695.721 366.265 695.994 366.265C696.267 366.265 697.769 363.72 699.202 360.629C700.703 357.447 702.41 354.266 702.956 353.448C704.184 351.72 706.368 346.448 706.368 345.266C706.368 344.448 706.846 343.448 708.825 340.539C709.235 339.903 709.781 338.539 710.054 337.63C710.395 336.085 711.351 334.357 714.558 329.267C714.9 328.63 715.241 327.54 715.241 326.812C715.241 326.085 715.582 325.176 715.924 324.903C716.333 324.631 717.22 322.631 717.903 320.449C718.654 318.358 719.95 315.631 720.838 314.449C721.725 313.176 724.114 308.722 726.093 304.631C728.072 300.45 730.188 296.268 730.802 295.359C732.577 292.814 733.328 291.359 733.874 289.905C734.761 287.632 736.058 284.723 736.877 283.45C737.286 282.723 738.447 280.269 739.402 277.905C740.358 275.542 741.927 272.542 742.883 271.178C743.77 269.905 744.726 267.996 744.93 267.087C745.203 266.087 745.681 265.36 746.022 265.36C746.364 265.36 746.637 264.542 746.637 263.451C746.637 262.451 746.91 261.815 747.251 262.178C747.592 262.451 748.411 260.997 749.094 258.997C749.776 256.997 750.664 255.361 751.141 255.361C751.551 255.361 752.779 253.815 753.871 251.906C754.895 250.088 755.987 248.361 756.26 248.088C756.875 247.452 759.536 241.634 760.014 239.634C760.287 238.816 760.765 238.088 761.106 238.088C761.925 238.088 766.43 231.543 766.43 230.361C766.43 229.816 767.044 228.725 767.795 227.816C768.546 226.998 769.16 225.725 769.16 224.998C769.16 224.271 769.638 223.544 770.184 223.18C770.73 222.907 771.207 222.089 771.207 221.453C771.207 220.725 771.685 219.635 772.231 218.998C772.777 218.362 773.255 217.271 773.255 216.635C773.255 214.726 775.575 211.999 779.056 209.908C781.24 208.544 782.128 207.544 782.128 206.181C782.128 205.181 782.605 203.726 783.151 202.999C783.697 202.181 784.175 200.817 784.175 199.817C784.175 198.908 784.448 198.09 784.789 198.09C785.131 198.09 785.608 196.999 785.881 195.636C786.291 193.181 789.499 187.363 790.523 187.272C790.796 187.181 791 189.09 791 191.454ZM374.665 223.18C376.713 223.725 376.781 223.998 376.371 226.907C375.825 230.998 376.508 233.543 378.146 233.543C379.989 233.543 379.852 236.725 378.009 236.907C377.19 236.998 376.03 237.725 375.348 238.543C374.46 239.634 373.437 239.816 371.662 239.452C366.953 238.27 365.042 230.725 368.591 227.362C369.273 226.725 369.887 225.362 369.887 224.362C369.887 222.453 370.911 222.271 374.665 223.18ZM678.385 243.634C678.044 244.815 677.43 246.452 677.088 247.179C676.406 248.633 674.768 253.451 673.676 257.451C673.266 258.815 672.652 259.906 672.242 259.906C671.901 259.906 671.56 261.088 671.56 262.542C671.56 263.997 671.15 265.36 670.536 265.724C669.99 265.996 669.512 266.815 669.512 267.633C669.512 268.36 669.035 268.996 668.489 268.996C667.943 268.996 667.465 269.633 667.465 270.36C667.465 271.087 667.192 271.724 666.851 271.724C666.509 271.724 665.554 273.451 664.735 275.542C662.96 280.269 661.8 282.905 661.254 283.541C660.981 283.814 660.094 285.723 659.275 287.814C658.456 289.996 657.5 291.723 657.159 291.723C656.818 291.723 656.545 292.541 656.545 293.541C656.545 294.541 656.272 295.359 655.999 295.359C655.316 295.359 653.132 301.268 653.132 303.177C653.132 304.631 652.313 306.177 649.583 309.904C648.491 311.358 647.672 313.086 647.672 313.904C647.672 314.722 647.194 315.358 646.648 315.358C646.034 315.358 645.624 316.176 645.624 317.631C645.624 318.904 645.351 319.903 644.942 319.903C644.601 319.903 644.259 320.54 644.259 321.267C644.259 322.085 643.781 322.903 643.235 323.176C642.689 323.54 642.212 324.358 642.212 325.085C642.212 325.812 641.324 327.994 640.164 329.903C639.072 331.812 638.117 333.812 638.117 334.357C638.117 334.903 637.844 335.357 637.434 335.357C637.093 335.357 636.752 336.357 636.752 337.539C636.752 338.721 636.069 340.63 635.182 341.812C633.202 344.63 629.585 350.902 629.039 352.629C627.742 356.538 625.081 360.811 623.92 360.811C623.443 360.811 622.623 361.993 622.214 363.447C621.736 364.993 620.439 367.538 619.347 369.174C618.187 370.811 616.89 373.265 616.344 374.629C615.867 375.901 613 380.356 610.065 384.356C607.062 388.446 604.673 392.264 604.673 392.901C604.673 393.537 603.786 394.991 602.626 396.264C601.534 397.537 600.578 398.81 600.578 399.173C600.578 400.446 595.391 406.9 593.958 407.355C593.07 407.627 592.388 407.718 592.388 407.446C592.388 406.718 596.005 400.446 597.643 398.355C598.531 397.264 599.213 395.901 599.213 395.355C599.213 394.901 599.554 394.537 599.964 394.628C600.442 394.81 601.056 393.628 601.397 391.992C601.738 390.264 602.762 388.446 603.991 387.446C605.151 386.628 606.038 385.355 606.038 384.719C606.038 384.083 606.516 383.537 607.062 383.537C607.608 383.537 608.086 382.901 608.086 382.174C608.086 381.447 608.427 380.81 608.837 380.81C609.86 380.81 613.409 375.356 614.706 371.901C615.252 370.356 616.003 368.992 616.344 368.992C616.686 368.992 616.959 368.356 616.959 367.629C616.959 366.811 617.436 365.993 617.982 365.72C618.528 365.356 619.006 364.629 619.006 363.902C619.006 363.175 619.552 361.902 620.235 360.902C623.374 356.538 625.217 353.175 625.558 351.175C625.763 349.993 626.377 348.993 626.923 348.993C627.469 348.993 627.879 348.175 627.879 347.084C627.879 346.084 628.834 344.175 629.926 342.903C631.087 341.721 631.974 340.085 631.974 339.448C631.974 338.812 632.452 338.085 632.998 337.721C633.544 337.448 634.021 336.357 634.021 335.357C634.021 334.357 634.294 333.539 634.636 333.539C634.977 333.539 635.66 332.085 636.069 330.358C636.479 328.63 637.093 327.176 637.434 327.176C637.775 327.176 638.185 326.449 638.39 325.54C638.663 324.721 639.755 322.631 640.847 320.903C642.007 319.176 642.894 316.813 642.894 315.449C642.894 313.722 643.099 313.449 643.508 314.358C643.918 315.267 644.328 314.722 644.942 312.267C645.351 310.449 646.102 308.722 646.58 308.358C647.126 307.904 648.15 305.995 648.969 303.995C651.153 298.541 652.04 296.813 652.995 295.995C653.405 295.632 653.814 294.632 653.814 293.995C653.814 293.268 654.087 292.632 654.497 292.632C654.838 292.632 655.316 291.632 655.589 290.359C655.794 289.086 656.203 288.087 656.476 288.087C656.749 288.087 657.5 286.632 658.114 284.905C658.729 283.178 659.548 281.723 659.957 281.723C660.298 281.723 660.64 280.45 660.64 278.996C660.64 277.451 660.981 276.269 661.322 276.269C662.346 276.269 664.735 272.814 664.735 271.36C664.735 270.724 665.213 269.633 665.759 268.996C666.305 268.36 666.782 267.178 666.782 266.269C666.782 265.451 667.397 263.633 668.147 262.36C668.898 261.088 669.512 259.633 669.512 259.179C669.512 258.724 669.99 258.088 670.536 257.724C671.082 257.451 671.56 256.179 671.56 254.906C671.56 253.451 671.969 252.633 672.584 252.633C673.13 252.633 673.607 251.815 673.607 250.724C673.607 249.724 673.812 249.088 674.153 249.27C674.426 249.543 675.518 247.724 676.611 245.27C678.726 240.725 679.614 239.816 678.385 243.634ZM157.625 333.903C157.625 335.176 157.966 336.448 158.307 336.721C159.331 337.539 159.195 338.266 157.42 340.994C156.601 342.266 154.553 345.902 152.915 348.902C151.277 351.993 149.639 354.448 149.366 354.448C149.025 354.448 148.752 355.448 148.752 356.72C148.752 357.993 148.274 359.266 147.728 359.538C147.182 359.902 146.704 360.902 146.704 361.811C146.704 362.72 146.227 363.538 145.681 363.538C145.135 363.538 144.657 364.265 144.657 365.174C144.657 366.72 144.111 367.902 141.244 372.356C140.835 372.992 140.221 374.538 139.879 375.81C139.538 377.083 138.924 378.083 138.514 378.083C138.173 378.083 137.832 378.901 137.832 379.992C137.832 381.356 137.491 381.719 136.808 381.356C136.125 381.083 135.784 381.447 135.784 382.628C135.784 383.537 135.511 384.628 135.102 384.901C134.76 385.174 134.01 386.719 133.395 388.355C132.849 389.992 131.621 392.355 130.665 393.719C129.71 395.082 128.959 396.81 128.959 397.628C128.959 398.355 128.55 398.991 128.004 398.991C127.526 398.991 126.843 399.719 126.639 400.537C125.888 403.355 124.591 405.9 122.475 408.718C121.315 410.173 119.677 412.9 118.721 414.718C117.766 416.536 116.81 418.081 116.537 418.081C116.196 418.081 115.991 418.627 115.991 419.263C115.991 419.9 115.104 421.445 113.944 422.627C112.852 423.899 111.964 425.445 111.896 425.99C111.896 426.627 111.418 427.172 110.872 427.172C110.258 427.172 109.439 428.263 108.961 429.627C108.552 431.081 107.46 433.172 106.641 434.445C105.753 435.717 105.071 437.172 105.071 437.808C105.071 438.444 104.593 438.99 104.047 438.99C103.501 438.99 103.023 439.717 103.023 440.535C103.023 441.444 101.931 443.717 100.635 445.535C99.3378 447.353 98.2458 449.262 98.2458 449.808C98.2458 450.353 97.768 450.808 97.222 450.808C96.676 450.808 96.1983 451.444 96.1983 452.171C96.1983 452.898 95.7205 453.535 95.1745 453.535C94.6285 453.535 94.1507 454.08 94.1507 454.807C94.1507 455.444 93.6729 456.535 93.1269 457.171C92.5809 457.807 92.1032 458.989 92.1032 459.898C92.1032 460.807 91.6254 461.716 91.0794 462.08C90.5334 462.353 90.0556 463.171 90.0556 463.989C90.0556 464.716 89.8509 465.352 89.5778 465.352C89.2366 465.352 87.6668 467.989 85.9605 471.261C84.2542 474.534 82.4797 477.17 82.0702 477.17C81.5924 477.17 81.1829 477.806 81.1829 478.534C81.1829 479.261 80.9099 479.897 80.5004 479.897C80.1591 479.897 79.8179 479.715 79.8179 479.443C79.8179 478.261 81.5924 473.898 82.3432 473.261C82.8209 472.898 83.2304 471.988 83.2304 471.352C83.2304 470.625 83.7082 469.898 84.2542 469.534C84.8002 469.261 85.278 468.261 85.278 467.352C85.278 466.352 85.7558 465.08 86.3018 464.443C86.8478 463.807 87.3255 462.898 87.3255 462.443C87.3255 461.989 87.8716 460.807 88.5541 459.898C89.2366 458.898 90.5334 456.262 91.3524 453.989C92.1714 451.717 93.1952 449.898 93.5364 449.898C93.8777 449.898 94.1507 449.08 94.1507 448.08C94.1507 447.08 94.492 446.262 94.8332 446.262C95.2427 446.262 95.857 445.353 96.1983 444.171C96.8808 442.081 98.3141 438.899 98.9283 438.081C99.6108 437.172 103.023 429.899 103.023 429.354C103.023 428.536 107.255 421.354 108.279 420.536C108.757 420.172 109.166 419.081 109.166 418.172C109.166 417.263 111.145 413.809 113.602 410.445C116.059 407.082 118.039 404.173 118.039 403.991C118.039 403.809 118.721 402.628 119.609 401.355C121.11 399.173 122.612 395.628 124.318 390.083C124.796 388.537 125.615 387.174 126.024 387.174C126.502 387.174 126.912 386.355 126.912 385.265C126.912 384.174 127.662 382.537 128.55 381.628C129.505 380.628 130.938 377.992 131.757 375.81C132.576 373.538 133.532 371.72 133.873 371.72C134.146 371.72 134.419 371.174 134.419 370.538C134.419 369.902 135.375 368.083 136.467 366.447C137.627 364.811 138.514 363.084 138.514 362.629C138.514 362.175 139.743 360.084 141.244 357.993C142.746 355.902 144.316 352.993 144.793 351.63C145.271 350.175 146.09 348.993 146.5 348.993C146.978 348.993 147.387 348.448 147.387 347.721C147.387 346.993 147.865 346.266 148.411 345.993C148.957 345.63 150.254 343.721 151.277 341.539C152.301 339.357 153.871 336.721 154.69 335.63C155.577 334.539 156.26 333.176 156.26 332.63C156.26 332.176 156.601 331.721 156.942 331.721C157.352 331.721 157.625 332.721 157.625 333.903ZM512.124 504.987C512.738 505.26 513.216 505.987 513.216 506.624C513.216 507.896 511.1 510.442 509.326 511.169C508.643 511.442 507.483 513.078 506.732 514.623C505.231 518.169 497.996 528.077 496.904 528.077C496.494 528.077 495.539 529.259 494.652 530.804C493.833 532.259 492.809 533.532 492.467 533.532C492.058 533.532 490.556 534.986 489.123 536.713C487.69 538.44 486.257 539.895 485.984 539.895C485.642 539.895 484.892 540.804 484.209 541.986C483.595 543.168 481.684 545.077 480.046 546.349C478.408 547.531 477.043 548.804 477.043 549.167C477.043 549.622 476.292 549.895 475.336 549.895C474.381 549.895 473.63 549.622 473.63 549.167C473.63 548.804 474.995 546.713 476.701 544.44C478.339 542.168 479.704 539.895 479.773 539.35C479.773 538.804 480.865 537.168 482.161 535.622C483.458 534.077 484.55 532.35 484.55 531.804C484.55 531.259 484.96 530.804 485.438 530.804C485.847 530.804 487.349 529.35 488.645 527.623C489.942 525.896 491.375 524.441 491.785 524.441C492.263 524.441 492.809 523.714 493.013 522.805C493.218 521.896 494.447 520.441 495.607 519.441C498.201 517.441 506.391 506.714 506.391 505.351C506.391 504.351 510.418 504.078 512.124 504.987Z" fill="#FFEFD3"/>
</svg>
